<svg width="442" height="142" viewBox="0 0 442 142" fill="none" xmlns="http://www.w3.org/2000/svg">
<path d="M398.3 42.5638V41.4158C398.3 39.7078 399.028 39.0918 400.176 39.0918C401.492 39.0918 402.052 39.8758 402.052 41.4438V42.5358L406.56 42.5078C407.764 42.5078 408.968 42.6758 408.968 44.2438C408.968 46.0078 407.484 46.0638 406.168 46.0638L402.052 46.0918V50.9918C402.472 52.2518 402.808 53.5118 402.808 54.8558C402.808 57.9918 401.268 60.7078 398.664 62.4438C397.432 63.2838 394.912 64.4598 393.4 64.4598C392.28 64.4598 391.468 63.5918 391.468 62.4718C391.468 61.0718 392.364 60.7638 393.848 60.3438C395.668 59.8398 398.608 58.4118 398.748 56.2558C398.048 57.4598 396.564 57.9918 395.22 57.9918C392.168 57.9918 389.816 55.6398 389.816 52.5878C389.816 49.5078 392.308 47.2678 395.332 47.2678C396.368 47.2678 397.348 47.4918 398.3 47.8558V46.1198L387.212 46.2038C385.616 46.2038 384.244 46.2038 384.244 44.4398C384.244 42.6758 385.672 42.6478 387.184 42.6478L398.3 42.5638ZM395.78 50.5718C394.604 50.5718 393.624 51.4678 393.624 52.6718C393.624 53.8758 394.632 54.6318 395.78 54.6318C396.956 54.6318 397.992 53.8758 397.992 52.6438C397.992 51.3838 396.984 50.5718 395.78 50.5718Z" fill="#0F71A3"/>
<path d="M365.652 42.5359V41.2199C365.652 40.2399 366.324 39.4839 367.472 39.4839C368.816 39.4839 369.32 40.2959 369.32 42.0319V42.5079L373.94 42.4519C375.368 42.4239 376.068 43.1799 376.068 44.2999C376.068 45.7559 374.864 46.0919 373.744 46.1199L369.348 46.1759L369.376 48.1639L374.36 48.1079C375.368 48.1079 376.628 48.4719 376.628 49.8719C376.628 51.2159 375.452 51.6359 374.556 51.6359L369.404 51.6919L369.432 55.1919C371.364 55.7239 376.74 57.9359 376.74 60.3159C376.74 61.3519 375.76 62.3319 374.724 62.3319C374.08 62.3319 373.828 62.1359 372.4 60.8199C371.56 60.0639 370.496 59.4199 369.432 59.0279C369.32 60.7359 368.536 62.0239 367.052 62.9479C365.904 63.6759 364.448 63.8439 363.132 63.8439C361.788 63.8439 360.388 63.6199 359.184 62.9479C357.728 62.1359 356.72 60.5959 356.72 58.8599C356.72 55.3599 360.612 54.1279 363.524 54.1279C364.28 54.1279 365.064 54.2119 365.82 54.2959L365.792 51.7199L359.24 51.8039H358.428C357.28 51.8039 356.244 51.3559 356.244 50.0399C356.244 48.9199 356.636 48.2759 359.212 48.2479L365.736 48.1919L365.708 46.2039L359.212 46.2599C357.644 46.2599 356.832 45.6439 356.832 44.4399C356.832 43.4319 357.252 42.6479 359.8 42.6199L365.652 42.5359ZM365.82 57.7959C365.064 57.5439 364.28 57.3759 363.468 57.3759C362.516 57.3759 360.584 57.5999 360.584 58.8879C360.584 60.0359 362.264 60.2879 363.16 60.2879C364.728 60.2879 365.708 59.3359 365.82 57.7959Z" fill="#0F71A3"/>
<path d="M332.892 41.0238C332.892 40.0718 333.704 39.1758 334.684 39.1758C335.132 39.1758 335.804 39.4278 336.924 39.8758C337.736 40.2118 339.976 40.8558 341.544 41.0798C343 41.2758 344.008 41.5838 344.008 42.9558C344.008 43.9918 343.252 44.8598 342.188 44.8598C340.676 44.8598 335.832 43.4598 334.264 42.8158C333.48 42.4798 332.892 41.8918 332.892 41.0238ZM339.808 52.9798C340.088 52.9518 340.368 52.9518 340.648 52.9518C341.852 52.9518 342.944 53.4838 343.196 54.7438C343.392 55.7238 343.392 56.7598 343.392 57.7398V57.8798C343.392 59.2238 343.588 60.2038 345.156 60.2038C345.94 60.2038 346.78 60.0638 348.124 59.7838C348.432 59.7278 348.74 59.6718 349.048 59.6718C350.112 59.6718 350.784 60.6518 350.784 61.6318C350.784 62.4438 350.392 63.1438 349.58 63.3958C348.292 63.7878 345.884 63.9558 344.484 63.9558C340.256 63.9558 339.668 61.9958 339.612 58.2158C339.584 57.0118 339.556 55.9478 338.324 55.9478C336.476 55.9478 332.052 60.9598 330.764 62.4438C330.204 63.0878 329.56 63.7878 328.636 63.7878C327.572 63.7878 326.732 62.8918 326.732 61.8558C326.732 60.9318 327.264 60.3718 328.496 59.1398C331.772 55.8358 335.356 52.3918 338.408 49.6198C336.14 49.7878 332.556 50.0398 331.016 50.0398C329.756 50.0398 328.804 49.4238 328.804 48.0798C328.804 47.4078 329.056 46.7918 329.672 46.4278C330.064 46.2038 330.596 46.1478 331.1 46.1478C331.772 46.1478 333.62 46.1478 334.292 46.1478C335.664 46.1478 338.016 46.0918 339.304 45.9518C340.872 45.7838 341.908 45.6998 342.3 45.6998C343.028 45.6998 343.672 45.8958 344.092 46.4838C344.344 46.8198 344.54 47.2118 344.54 47.6318C344.54 48.1078 344.456 48.5838 344.12 48.9198C342.804 50.2078 341.208 51.7198 339.808 52.9798Z" fill="#0F71A3"/>
<path d="M316.959 43.9362C317.687 45.0842 317.939 45.6162 317.939 46.0922C317.939 46.9882 317.043 47.5202 316.231 47.5202C315.643 47.5202 315.335 47.3522 314.915 46.7642C314.243 45.8682 313.599 44.8602 313.011 43.9362H312.311C311.303 45.5882 310.967 45.9242 310.351 46.1202C310.799 46.4282 311.359 46.7922 312.255 47.3802C314.383 48.7522 316.903 49.7042 319.395 50.4042C321.215 50.9082 321.719 51.3282 321.719 52.3362C321.719 53.2042 321.159 54.1562 320.207 54.1562C319.591 54.1562 318.107 53.8202 315.531 52.6442C315.279 53.5122 314.747 53.6522 313.683 53.6522H303.967C302.735 53.6522 302.287 53.4562 302.035 52.7282C299.403 53.8202 298.059 54.1562 297.275 54.1562C296.211 54.1562 295.539 53.5962 295.539 52.5042C295.539 51.3562 296.043 51.0482 297.331 50.7122C300.831 49.8162 304.275 48.4442 307.103 46.0922C307.775 45.5322 308.083 45.4762 308.727 45.5042C308.559 45.2522 308.475 44.9722 308.475 44.6642C308.475 44.3562 308.615 44.0762 308.783 43.8242C308.531 43.9082 308.251 43.9362 307.355 43.9362H304.471C305.283 45.1682 305.367 45.3642 305.367 45.7282C305.367 46.5962 304.555 47.1842 303.743 47.1842C303.239 47.1842 302.707 46.9882 302.427 46.5682C302.007 45.9522 301.055 44.4402 300.747 43.9362H300.215C298.955 45.8402 298.283 46.3162 297.583 46.3162C296.715 46.3162 295.959 45.5882 295.959 44.7202C295.959 44.3002 296.015 44.0762 296.547 43.2922C297.303 42.2002 297.947 41.2202 298.703 39.9042C299.235 38.9522 299.459 38.7842 300.075 38.7842C300.971 38.7842 301.923 39.2882 301.923 40.2682C301.923 40.5202 301.839 40.8282 301.755 41.0522H307.355C308.671 41.0522 309.371 41.2202 309.539 42.3122C309.987 41.3042 310.351 40.4642 310.743 39.5962C310.967 39.0922 311.499 38.8962 312.031 38.8962C312.899 38.8962 313.767 39.4002 313.767 40.4082C313.767 40.6322 313.711 40.8562 313.655 41.0522H319.143C320.515 41.0522 321.271 41.2762 321.271 42.5082C321.271 43.7962 320.459 43.9362 319.031 43.9362H316.959ZM305.787 50.7962H311.863C310.967 50.2362 310.155 49.7602 309.231 49.2562C308.979 49.1162 308.839 49.0602 308.755 49.0602C308.587 49.0602 308.447 49.1162 307.887 49.4802C307.187 49.9282 306.431 50.4042 305.787 50.7962ZM301.839 55.0522H315.587C317.015 55.0522 317.771 55.2482 318.415 56.0042C318.863 56.5082 319.003 57.3482 319.003 57.9922V61.1282C319.003 63.3962 317.631 64.0402 315.755 64.0402H301.839C300.495 64.0402 299.739 63.9002 299.011 63.1162C298.563 62.6122 298.423 61.7722 298.423 61.1282V57.9922C298.423 55.7522 299.795 55.0242 301.839 55.0522ZM301.839 58.8602V60.2042C301.839 60.9042 302.119 61.1002 302.847 61.1002H314.551C315.279 61.1002 315.559 60.8762 315.559 60.2042V58.8602C315.559 58.1322 315.167 57.9922 314.551 57.9922H302.847C302.147 57.9922 301.839 58.2162 301.839 58.8602Z" fill="#0F71A3"/>
<path d="M272.104 57.1239C272.244 56.2839 272.44 55.3879 272.748 54.5479C272.944 53.9879 273.42 53.6519 274.008 53.6519C274.68 53.6519 275.212 54.1279 275.212 54.7999C275.212 55.3039 274.904 56.5639 274.652 57.4319C274.372 58.4399 274.232 59.4759 274.12 60.4559C273.952 61.8839 273.756 63.2559 271.964 63.2559C271.012 63.2559 270.172 62.7239 269.752 61.8559C269.22 60.7359 268.968 59.4479 268.772 58.2439C268.464 56.4519 268.324 54.5759 268.324 52.6999C268.324 50.3199 268.492 47.8839 268.828 45.5319C269.08 43.7399 269.388 42.0319 269.948 41.0799C270.228 40.6039 270.816 40.3799 271.32 40.3799C272.244 40.3799 273.28 40.9959 273.28 42.0039C273.28 42.2279 273.14 43.2919 272.776 44.9719C272.076 48.1359 271.936 51.5519 271.936 54.7999C271.936 55.5839 271.964 56.3679 272.104 57.1239ZM277.256 43.8239C277.256 42.8719 277.984 42.0039 278.964 42.0039C280.308 42.0039 281.624 42.1439 282.968 42.1439C284.508 42.1439 286.44 41.9479 287.616 41.6679C288.064 41.5559 288.54 41.4439 288.988 41.4439C290.024 41.4439 290.752 42.3679 290.752 43.3479C290.752 44.2439 290.136 44.9439 289.296 45.1679C287.588 45.6159 283.192 45.7279 281.316 45.7279C278.908 45.7279 277.256 45.6999 277.256 43.8239ZM278.824 54.5759C279.888 54.5759 280.448 55.2199 280.476 56.2559C280.504 57.4599 280.56 57.9359 281.372 58.3279C282.24 58.7479 283.192 58.8599 284.144 58.8599C285.572 58.8599 287.56 58.7759 288.4 58.6079C288.792 58.5239 289.184 58.4679 289.576 58.4679C290.668 58.4679 291.368 59.3079 291.368 60.3439C291.368 61.1839 290.948 61.8559 290.164 62.1639C289.212 62.5559 287.504 62.6119 286.468 62.6119C282.128 62.6119 280.336 62.5279 278.628 61.1839C277.508 60.3159 276.92 58.8599 276.92 57.4599C276.92 56.0879 277.088 54.5759 278.824 54.5759Z" fill="#0F71A3"/>
<path d="M248.277 47.2682C247.717 48.8082 247.101 50.3482 246.345 51.8042C248.025 50.1522 250.937 49.7322 253.205 49.7322C255.389 49.7322 257.349 50.2922 259.001 51.8042C260.289 52.9802 261.017 54.6602 261.017 56.3962C261.017 59.0842 259.393 61.4082 257.041 62.5842C254.633 63.7882 251.917 63.9842 249.285 63.9842C247.493 63.9842 245.953 63.8722 245.169 63.2842C244.721 62.9482 244.497 62.3322 244.497 61.7442C244.497 60.7082 245.253 59.8122 246.317 59.8122C246.597 59.8122 246.877 59.8682 247.157 59.9242C248.305 60.1202 249.537 60.1762 250.713 60.1762C252.449 60.1762 254.213 59.9802 255.697 58.9722C256.621 58.3562 257.349 57.3762 257.349 56.2282C257.349 55.1082 256.537 54.1562 255.585 53.6522C254.745 53.2042 253.793 53.0642 252.869 53.0642C250.041 53.0642 247.437 54.2962 245.253 56.0322C244.469 56.6482 243.881 56.9842 243.293 56.9842C242.173 56.9842 241.333 55.9482 241.333 54.8842C241.333 54.3242 241.725 53.4842 242.089 52.8402C243.041 51.1882 243.909 49.2002 244.637 47.2962H241.053C239.457 47.2962 238.729 46.6522 238.729 45.5042C238.729 44.6362 239.401 43.7682 240.297 43.7122C241.081 43.6562 243.545 43.6562 244.469 43.6562C244.889 43.6562 245.281 43.6562 245.701 43.6282C245.869 42.7322 246.177 41.2202 246.373 40.4082C246.541 39.7642 247.269 39.4282 247.941 39.4282C249.089 39.4282 249.845 40.1002 249.845 41.2482C249.845 41.8922 249.649 42.8162 249.453 43.5442C252.085 43.4882 255.585 43.3482 256.929 43.0962C257.741 42.9562 258.217 42.9002 258.693 42.9002C259.757 42.9002 260.513 43.6002 260.513 44.6922C260.513 45.4482 260.037 46.1482 259.281 46.3722C257.853 46.8202 250.237 47.1842 248.277 47.2682Z" fill="#0F71A3"/>
<path d="M227.136 49.9002H218.456C216.888 49.9002 216.552 49.2282 216.552 48.2482C216.552 47.3522 216.916 46.6242 218.344 46.6242H223.44V44.8602H219.604C218.176 44.8602 217.364 44.7762 217.364 43.1522C217.364 41.6402 218.428 41.5842 219.604 41.5842H223.44V41.1082C223.44 39.6802 223.496 38.8682 225.176 38.8682C226.688 38.8682 226.688 39.9322 226.688 41.1082V41.5842H230.3C231.728 41.5842 232.54 41.6402 232.54 43.3482C232.54 44.6082 231.784 44.8602 230.3 44.8602H226.688V46.6242H231.588C232.96 46.6242 233.352 47.3242 233.352 48.2482C233.352 49.1162 233.072 49.9002 231.56 49.9002H230.496V52.0842H230.58C231.812 52.0842 232.876 52.0842 232.876 53.6802C232.876 55.2482 231.84 55.2482 230.58 55.2482H230.496V61.2122C230.496 62.0802 230.328 63.0882 229.572 63.6202C228.648 64.3202 227.304 64.4042 226.184 64.4042C225.288 64.4042 223.44 64.2362 222.74 63.7602C222.264 63.4522 222.068 62.9482 222.068 62.3882C222.068 61.5762 222.6 60.8482 223.496 60.8482C223.72 60.8482 224.336 60.9882 224.952 61.1562C225.4 61.2682 225.876 61.2962 226.352 61.2962C227.052 61.2962 227.136 61.1842 227.136 60.4282V55.2482H221.172C221.648 55.8082 222.124 56.3962 222.544 56.9842C222.992 57.5722 223.636 58.2442 223.636 58.9442C223.636 59.7842 222.768 60.5682 221.928 60.5682C221.452 60.5682 220.948 60.2042 220.612 59.7282C220.136 59.0842 219.548 58.2442 218.988 57.5442C218.456 56.8162 218.372 56.6202 218.372 56.2842C218.372 55.8922 218.54 55.5282 218.848 55.2482C217.448 55.2482 217 54.6322 217 53.6522C217 53.4562 217.028 53.2602 217.084 53.0642C216.636 53.7082 214.956 54.0442 214.2 54.2402V61.6602C214.2 63.5362 213.164 64.4882 211.288 64.4882C210.504 64.4882 209.272 64.2082 208.628 63.8162C208.124 63.5082 207.928 62.9762 207.928 62.5562C207.928 61.7162 208.404 60.9322 209.3 60.9322C209.412 60.9322 209.664 60.9882 209.916 61.0442C210.196 61.1002 210.42 61.1282 210.504 61.1282C210.868 61.1282 211.008 60.7922 211.008 60.4562V54.8282C210.42 54.9122 209.804 55.0242 209.188 55.0242C208.264 55.0242 207.592 54.2962 207.592 53.3722C207.592 52.7282 207.928 52.1122 208.544 51.8882C209.02 51.7202 210.42 51.6362 211.008 51.5522V46.9042H209.86C208.6 46.9042 207.62 46.7642 207.62 45.1962C207.62 43.6282 208.6 43.5162 209.86 43.5162H211.008V41.1082C211.008 39.9042 211.008 38.8682 212.548 38.8682C214.06 38.8682 214.2 39.8762 214.2 41.1082V43.5162H214.62C215.908 43.5162 216.86 43.6282 216.86 45.1962C216.86 46.7642 215.908 46.9042 214.62 46.9042H214.2V50.9642C214.732 50.8242 215.712 50.5722 215.908 50.5722C216.776 50.5722 217.336 51.4122 217.336 52.2242C217.336 52.3922 217.308 52.5602 217.252 52.7002C217.56 52.1962 218.064 52.0842 218.848 52.0842H227.136V49.9002Z" fill="#0F71A3"/>
<path d="M185.752 40.6039H200.256C201.404 40.6039 202.468 40.7439 202.468 42.1999C202.468 43.6559 201.348 43.6559 200.256 43.6559H183.596C182.84 44.5519 182.028 45.4199 181.104 46.1759C180.712 46.4839 180.32 46.7639 179.788 46.7639C178.892 46.7639 178.08 46.0079 178.08 45.0839C178.08 44.6079 178.36 44.2439 178.668 43.9079C180.124 42.4239 181.076 41.3599 182.364 39.7079C182.812 39.0919 183.26 38.5039 184.072 38.5039C184.912 38.5039 185.836 39.2599 185.836 40.1279C185.836 40.2959 185.808 40.4359 185.752 40.6039ZM184.828 45.1959H198.38C199.472 45.1959 200.62 45.2239 200.62 46.6239C200.62 48.0239 199.472 48.0519 198.38 48.0519H184.828C183.736 48.0519 182.588 48.0239 182.588 46.6239C182.588 45.1959 183.736 45.1959 184.828 45.1959ZM180.768 49.5359H197.344C198.1 49.5359 198.912 49.7319 199.388 50.3479C200.004 51.1599 200.032 53.3439 200.06 54.4079C200.116 56.1999 200.256 57.9079 200.928 59.5879C201.012 59.8119 201.068 59.8679 201.124 59.8679C201.236 59.8679 201.32 59.5599 201.432 58.5519C201.516 57.8799 202.104 57.3479 202.776 57.3479C203.924 57.3479 204.148 58.5799 204.148 59.4759C204.148 61.0439 203.392 64.5439 201.376 64.5439C200.2 64.5439 199.36 63.6759 198.8 62.7239C197.456 60.4839 196.952 57.6839 196.84 55.1079C196.728 52.9239 196.7 52.4479 195.748 52.4479H180.768C179.648 52.4479 178.528 52.4479 178.528 50.9919C178.528 49.5359 179.648 49.5359 180.768 49.5359ZM187.46 56.5359C188.02 55.9199 188.524 55.2479 188.972 54.5199C189.448 53.8199 189.924 53.0919 190.848 53.0919C191.716 53.0919 192.584 53.7639 192.584 54.6599C192.584 55.7239 191.044 57.5159 190.372 58.2999C191.268 58.8599 193.144 60.0639 193.76 60.5959C194.096 60.9039 194.208 61.2399 194.208 61.6599C194.208 62.5279 193.508 63.3399 192.584 63.3399C192.136 63.3399 191.716 63.1159 191.156 62.7519C190.092 62.0519 189 61.3519 187.908 60.6799C186.396 61.8839 184.744 62.8639 182.98 63.6479C182.14 64.0119 181.02 64.4879 180.096 64.4879C179.144 64.4879 178.472 63.6479 178.472 62.7519C178.472 61.7159 179.172 61.3519 180.04 61.0439C181.748 60.4839 183.372 59.7559 184.884 58.7759C183.932 58.1879 182.924 57.6279 181.916 57.0679C181.412 56.7879 181.048 56.3399 181.048 55.7519C181.048 54.9119 181.72 54.1279 182.56 54.1279C182.952 54.1279 183.54 54.3239 184.212 54.6879C185.388 55.3319 186.788 56.1439 187.46 56.5359Z" fill="#0F71A3"/>
<path d="M155.736 40.9681C155.736 39.9881 156.548 39.1201 157.556 39.1201C157.808 39.1201 158.144 39.2041 158.648 39.4001C161.028 40.3241 163.8 40.9121 166.516 41.1081C167.524 41.1921 168.224 41.8361 168.224 42.8721C168.224 43.9361 167.384 44.6921 166.348 44.6921C165.172 44.6921 164.052 44.5521 161.728 44.1041C160.132 43.7961 158.592 43.3481 157.08 42.7321C156.324 42.4241 155.736 41.8361 155.736 40.9681ZM162.54 46.0361C167.496 46.0361 172.06 48.0241 172.06 53.6801C172.06 57.8801 169.428 60.7641 165.732 62.3881C163.8 63.2281 160.524 64.0961 158.424 64.0961C157.22 64.0961 156.156 63.2841 156.156 62.0241C156.156 61.4921 156.38 60.9321 156.8 60.6241C157.332 60.2601 158.004 60.2041 158.648 60.1761C161.196 60.0361 164.92 59.0281 166.684 57.0681C167.552 56.1161 168 54.8841 168 53.6241C168 50.3201 165.088 49.6761 162.372 49.6761C159.516 49.6761 156.94 50.6281 154.28 51.6361C153.86 51.8041 153.384 51.9161 152.936 51.9161C151.9 51.9161 151.172 50.9081 151.172 49.9281C151.172 49.2001 151.564 48.5281 152.264 48.2481C154.896 47.1561 159.684 46.0361 162.54 46.0361Z" fill="#0F71A3"/>
<path d="M134.121 54.0719C134.849 54.9119 135.549 55.7799 136.221 56.6479C136.445 56.9279 136.669 57.2639 136.669 57.6559C136.669 58.5799 135.801 59.3639 134.877 59.3639C134.317 59.3639 133.953 58.9999 133.617 58.5799C133.029 57.8239 132.497 57.0399 131.881 56.3119C131.377 55.7519 131.153 55.4159 131.153 54.9399C131.153 54.6319 131.265 54.3239 131.461 54.0719H123.957C122.053 54.0719 121.157 52.8399 121.157 51.0199V42.0879C121.157 40.1279 122.669 39.6519 124.321 39.6519H140.449C141.961 39.6519 143.361 40.4079 143.361 42.0879V51.1319C143.361 52.8399 142.493 54.0719 140.673 54.0719H134.121ZM130.677 45.3919V42.6759H125.189C124.685 42.6759 124.405 42.7879 124.405 43.3479V45.3919H130.677ZM133.841 45.3919H140.141V43.4879C140.141 42.9839 140.029 42.6759 139.469 42.6759H133.841V45.3919ZM130.677 48.3879H124.405V50.4319C124.405 51.0479 124.629 51.1039 125.189 51.1039H130.677V48.3879ZM133.841 48.3879V51.1039H139.301C139.833 51.1039 140.141 51.0479 140.141 50.4039V48.3879H133.841ZM129.501 56.9839V59.6719C129.501 60.8199 129.921 60.8199 131.013 60.8199H136.109C136.809 60.8199 136.977 60.2879 137.257 59.4479C137.425 58.8879 137.845 58.3839 138.461 58.3839C139.329 58.3839 140.421 58.8599 140.421 59.8399C140.421 60.6519 139.665 62.2759 139.217 62.9479C138.741 63.7039 137.985 63.9839 137.145 63.9839H130.229C128.241 63.9839 126.365 63.4799 126.365 61.0999V56.9839C126.365 55.6679 126.393 54.7439 128.017 54.7439C129.501 54.7439 129.501 55.8639 129.501 56.9839ZM145.405 61.6599C145.405 62.6399 144.425 63.2839 143.557 63.2839C142.997 63.2839 142.549 62.8919 142.297 62.3879C141.681 61.0719 141.149 59.8679 140.505 58.6079C140.225 58.0479 139.805 57.4039 139.805 56.7599C139.805 55.8359 140.785 55.1919 141.625 55.1919C142.409 55.1919 142.773 55.7239 143.081 56.3679C143.809 57.8799 144.481 59.3919 145.209 60.9039C145.321 61.1559 145.405 61.4079 145.405 61.6599ZM121.129 63.9279C120.233 63.9279 119.141 63.2839 119.141 62.2759C119.141 61.9399 119.309 61.6039 119.477 61.3239C120.289 59.8959 120.961 58.3839 121.409 56.8159C121.633 56.1159 122.025 55.4999 122.865 55.4999C123.761 55.4999 124.741 56.1439 124.741 57.0959C124.741 58.1039 123.537 60.7919 123.061 61.7999C122.585 62.8639 122.109 63.9279 121.129 63.9279Z" fill="#0F71A3"/>
<path d="M95.7038 57.1239C95.8438 56.2839 96.0398 55.3879 96.3478 54.5479C96.5438 53.9879 97.0198 53.6519 97.6078 53.6519C98.2798 53.6519 98.8118 54.1279 98.8118 54.7999C98.8118 55.3039 98.5038 56.5639 98.2518 57.4319C97.9718 58.4399 97.8318 59.4759 97.7198 60.4559C97.5518 61.8839 97.3558 63.2559 95.5638 63.2559C94.6118 63.2559 93.7718 62.7239 93.3518 61.8559C92.8198 60.7359 92.5678 59.4479 92.3718 58.2439C92.0638 56.4519 91.9238 54.5759 91.9238 52.6999C91.9238 50.3199 92.0918 47.8839 92.4278 45.5319C92.6798 43.7399 92.9878 42.0319 93.5478 41.0799C93.8278 40.6039 94.4158 40.3799 94.9198 40.3799C95.8438 40.3799 96.8798 40.9959 96.8798 42.0039C96.8798 42.2279 96.7398 43.2919 96.3758 44.9719C95.6758 48.1359 95.5358 51.5519 95.5358 54.7999C95.5358 55.5839 95.5638 56.3679 95.7038 57.1239ZM100.856 43.8239C100.856 42.8719 101.584 42.0039 102.564 42.0039C103.908 42.0039 105.224 42.1439 106.568 42.1439C108.108 42.1439 110.04 41.9479 111.216 41.6679C111.664 41.5559 112.14 41.4439 112.588 41.4439C113.624 41.4439 114.352 42.3679 114.352 43.3479C114.352 44.2439 113.736 44.9439 112.896 45.1679C111.188 45.6159 106.792 45.7279 104.916 45.7279C102.508 45.7279 100.856 45.6999 100.856 43.8239ZM102.424 54.5759C103.488 54.5759 104.048 55.2199 104.076 56.2559C104.104 57.4599 104.16 57.9359 104.972 58.3279C105.84 58.7479 106.792 58.8599 107.744 58.8599C109.172 58.8599 111.16 58.7759 112 58.6079C112.392 58.5239 112.784 58.4679 113.176 58.4679C114.268 58.4679 114.968 59.3079 114.968 60.3439C114.968 61.1839 114.548 61.8559 113.764 62.1639C112.812 62.5559 111.104 62.6119 110.068 62.6119C105.728 62.6119 103.936 62.5279 102.228 61.1839C101.108 60.3159 100.52 58.8599 100.52 57.4599C100.52 56.0879 100.688 54.5759 102.424 54.5759Z" fill="#0F71A3"/>
<path d="M71.6231 41.584V41.108C71.6231 39.652 71.9031 39.064 73.4711 39.064C74.9551 39.064 75.0951 39.82 75.0951 41.08V41.584H82.7951C84.1391 41.584 85.3151 42.508 85.3151 43.908V46.008C85.3151 47.268 85.2591 48.248 83.7191 48.248C82.5991 48.248 82.0951 47.688 82.0951 46.54V45.392C82.0951 44.916 81.7311 44.72 81.3391 44.72H65.0991C64.6511 44.72 64.6231 45.112 64.6231 45.448V46.54C64.6231 47.604 64.3151 48.276 63.0831 48.276C61.5431 48.276 61.4591 47.268 61.4591 46.008V43.88C61.4591 42.34 62.4111 41.584 63.8951 41.584H71.6231ZM82.2071 52.252C81.8431 54.744 80.8071 57.096 79.1551 59.028C80.4431 59.644 82.9351 60.792 83.8871 61.604C84.1951 61.856 84.3071 62.248 84.3071 62.64C84.3071 63.452 83.6351 64.488 82.7671 64.488C82.3191 64.488 81.8991 64.264 81.5351 64.068C79.8271 63.144 78.0631 62.276 76.3551 61.408C73.7511 63.032 70.7551 63.872 67.7871 64.32C66.6951 64.488 65.6031 64.6 64.5111 64.6C63.3911 64.6 62.7471 64.096 62.7471 62.92C62.7471 61.828 63.4471 61.436 64.4271 61.352C67.1711 61.128 70.3071 60.82 72.7991 59.616C70.9791 58.776 69.1311 57.964 67.2831 57.152C66.9191 57.572 66.4991 58.076 65.8831 58.076C65.0991 58.076 64.1191 57.152 64.1191 56.284C64.1191 55.976 64.2871 55.5 64.4551 55.304C65.1831 54.38 66.0231 53.288 66.6951 52.252H62.9431C61.7391 52.252 60.7031 52.14 60.7031 50.628C60.7031 49.116 61.7391 49.004 62.9431 49.004H68.4031C68.6271 48.5 69.3831 46.596 69.5511 46.316C69.7751 45.952 70.1951 45.672 70.6151 45.672C71.4831 45.672 72.6311 46.232 72.6311 47.184C72.6311 47.604 72.4071 48.332 72.1271 49.004H83.9431C85.1471 49.004 86.1831 49.116 86.1831 50.628C86.1831 52.14 85.1471 52.252 83.9431 52.252H82.2071ZM78.7631 52.252H70.6151C70.1671 53.092 69.6911 53.904 69.1591 54.716C71.4831 55.5 73.7231 56.536 75.9631 57.544C77.4191 56.144 78.3431 54.212 78.7631 52.252Z" fill="#0F71A3"/>
<path d="M45.9194 45.8681V62.1361C45.9194 63.4521 45.6394 64.4881 44.0714 64.4881C42.5314 64.4881 42.4474 63.3681 42.4474 62.1361V49.9561C40.5994 51.6641 35.1674 56.2281 32.7314 56.2281C31.7514 56.2281 31.0234 55.4721 31.0234 54.5201C31.0234 54.1281 31.1354 53.7361 31.4154 53.4561C31.8634 53.0361 32.4794 52.7281 33.0394 52.4201C35.9794 50.7401 38.7514 48.7801 41.1034 46.2881C41.8874 45.4761 42.6154 44.6081 43.2034 43.6561H33.7394C32.5634 43.6561 31.4994 43.3761 31.4994 42.0041C31.4994 40.6041 32.5634 40.2681 33.7394 40.2681H54.4594C55.6074 40.2681 56.6994 40.5761 56.6994 41.9761C56.6994 43.3761 55.6354 43.6561 54.4594 43.6561H47.2634C46.8434 44.4121 46.3954 45.1401 45.9194 45.8681ZM49.1394 46.2601C49.7554 46.2601 50.2594 46.6521 50.6234 47.1001C52.1914 48.9761 53.8714 50.7401 55.6914 52.3641C56.2794 52.8961 56.9794 53.5401 56.9794 54.4081C56.9794 55.3881 56.0554 56.2561 55.1034 56.2561C54.5714 56.2561 54.1234 55.9201 53.7314 55.6121C52.3874 54.5201 51.1834 53.2881 50.0354 52.0001C49.1954 51.0761 47.3474 49.2841 47.3474 47.9961C47.3474 47.0721 48.2154 46.2601 49.1394 46.2601Z" fill="#0F71A3"/>
<path d="M340.171 9.94019C341.795 9.85619 345.519 9.32419 346.863 9.10019C347.535 8.98819 347.815 8.96019 348.067 8.96019C349.187 8.96019 349.831 9.74419 349.831 10.8362C349.831 12.1522 348.963 12.4602 347.843 12.5722C345.771 12.7962 343.055 13.1602 341.179 14.0842C339.415 14.9522 337.679 16.5482 337.679 18.6482C337.679 19.9362 338.323 20.7202 339.471 21.2522C340.871 21.8962 342.411 22.0922 343.951 22.2042C345.015 22.2882 345.659 22.7922 345.659 23.9402C345.659 25.0322 344.931 25.9282 343.811 25.9282C342.131 25.9282 339.667 25.4242 338.099 24.7802C335.579 23.7442 333.927 21.8402 333.927 19.0402C333.927 17.0522 334.795 15.4562 336.223 14.1122C334.487 14.3082 332.639 14.5602 330.987 14.8402C329.923 15.0082 327.543 15.3722 327.151 15.3722C326.087 15.3722 325.303 14.5322 325.303 13.4962C325.303 12.8522 325.723 12.2082 326.171 11.9842C326.479 11.8442 326.955 11.6762 327.319 11.6482C328.859 11.4802 330.399 11.3122 331.939 11.1442C333.283 11.0042 334.235 10.8922 335.355 9.99619C337.847 8.00819 339.751 5.37619 341.543 2.74419C341.991 2.10019 342.467 1.59619 343.307 1.59619C344.343 1.59619 345.211 2.46419 345.211 3.50019C345.211 4.25619 344.231 5.51619 343.475 6.44019C342.467 7.67219 341.431 8.93219 340.171 9.94019ZM329.979 1.90419C331.211 1.90419 332.135 3.30419 333.087 4.73219C333.591 5.46019 334.235 6.49619 334.235 7.28019C334.235 8.23219 333.451 9.04419 332.499 9.04419C331.519 9.04419 331.127 8.31619 330.679 7.53219C330.119 6.55219 329.447 5.60019 328.747 4.73219C328.495 4.42419 328.327 4.00419 328.327 3.61219C328.327 2.68819 329.055 1.90419 329.979 1.90419Z" fill="#0F71A3"/>
<path d="M313.489 5.93602C310.269 6.49602 306.965 6.63602 303.717 6.63602C302.345 6.63602 300.469 6.60802 300.469 4.78802C300.469 3.64002 301.309 2.94002 302.401 2.94002C303.801 2.94002 305.173 2.99602 306.573 2.99602C309.093 2.99602 312.901 2.82802 313.881 2.68802C314.693 2.57602 315.337 2.52002 315.701 2.52002C317.129 2.52002 318.165 3.58402 318.165 5.01202C318.165 6.38402 317.157 7.05602 315.813 7.72802C314.805 8.23202 313.657 8.82002 312.649 9.40802C312.229 9.66002 311.837 9.82802 311.361 9.82802C310.577 9.82802 309.961 9.21202 309.961 8.42802C309.961 7.75602 310.437 7.39202 310.969 7.11202C311.781 6.66402 312.649 6.27202 313.489 5.93602ZM301.113 14.728C302.009 14.728 303.017 15.372 303.017 16.38C303.017 16.66 302.905 16.996 302.709 17.528C302.569 17.92 302.457 18.368 302.457 18.676C302.457 20.888 307.861 21.252 309.429 21.252C311.585 21.252 314.665 20.944 316.765 20.44C317.493 20.272 317.689 20.244 317.913 20.244C319.145 20.244 319.873 21.112 319.873 22.288C319.873 23.184 319.425 23.856 318.585 24.136C316.401 24.864 312.425 25.004 310.073 25.004C306.153 25.004 298.705 24.5 298.705 19.096C298.705 17.724 299.349 14.728 301.113 14.728Z" fill="#0F71A3"/>
<path d="M287.925 5.48787C287.925 6.85987 286.973 7.36387 285.741 7.36387C283.641 7.36387 277.425 6.15987 275.465 5.40387C274.569 5.06787 274.037 4.56387 274.037 3.58387C274.037 2.57587 274.737 1.56787 275.829 1.56787C276.109 1.56787 276.613 1.70787 277.201 1.93187C279.553 2.82787 283.109 3.35987 286.161 3.66787C287.169 3.77987 287.925 4.42387 287.925 5.48787ZM273.813 13.6359C276.109 11.8999 279.105 11.0319 281.989 11.0319C286.049 11.0319 290.501 13.4679 290.501 18.0039C290.501 20.5799 288.821 23.0719 286.581 24.2479C284.369 25.4239 281.905 25.7319 279.441 25.7319C278.097 25.7319 275.885 25.7319 274.681 25.1439C273.981 24.8079 273.589 24.1919 273.589 23.4079C273.589 22.3159 274.289 21.4479 275.409 21.4479C275.717 21.4479 276.137 21.5599 276.529 21.6719C277.621 21.9519 278.769 22.0919 280.057 22.0919C282.633 22.0919 286.469 21.1399 286.469 17.8919C286.469 15.3719 283.417 14.6439 281.401 14.6439C278.629 14.6439 275.857 15.7359 273.757 17.4999C273.113 18.0599 272.441 18.6479 271.545 18.6479C270.397 18.6479 269.613 17.7799 269.613 16.6599C269.613 16.1279 269.865 14.6999 270.061 13.7479C270.201 13.0479 270.397 11.5359 270.397 10.3599C270.397 9.71587 270.453 8.53987 270.565 7.95187C270.733 7.11187 271.293 6.60787 272.357 6.60787C273.449 6.60787 274.345 7.25187 274.345 8.42787C274.345 10.0799 274.065 12.0119 273.813 13.6359Z" fill="#0F71A3"/>
<path d="M248.137 6.83189C250.153 6.74789 252.337 6.71989 254.129 7.78389C256.313 9.07189 256.789 11.4519 256.789 13.8039C256.789 16.7719 256.285 21.6719 254.409 23.9679C253.457 25.1439 251.973 25.5079 250.489 25.5079C249.369 25.5079 247.409 25.3959 246.485 24.7239C246.009 24.3879 245.757 23.8839 245.757 23.2959C245.757 22.2599 246.457 21.2519 247.549 21.2519C247.941 21.2519 248.333 21.3359 248.725 21.4759C249.173 21.6439 249.621 21.6999 250.125 21.6999C251.021 21.6999 251.441 21.3079 251.805 20.5239C252.785 18.4239 253.093 15.9879 253.093 13.7199C253.093 12.5439 253.009 11.5359 251.833 10.8919C251.329 10.6119 250.293 10.4999 247.549 10.5559C246.765 14.8399 245.281 19.2639 243.013 23.0159C242.537 23.8279 241.809 24.8919 240.773 24.8919C239.737 24.8919 238.757 24.1359 238.757 23.0719C238.757 22.4279 239.093 21.8679 239.653 21.0279C241.445 18.3119 242.313 16.3799 243.181 13.1599C243.377 12.4039 243.545 11.6199 243.657 10.8639C242.705 11.0319 240.717 11.3399 240.241 11.3399C239.205 11.3399 238.477 10.4439 238.477 9.43589C238.477 8.53989 239.065 7.92389 239.905 7.69989C241.109 7.39189 242.817 7.22389 244.273 7.11189C244.413 5.85189 244.469 4.50789 244.497 3.61189C244.525 2.15589 245.141 1.48389 246.373 1.48389C247.577 1.48389 248.389 2.21189 248.389 3.44389C248.389 4.56389 248.277 5.71189 248.137 6.83189ZM263.761 13.2719C263.761 14.2799 262.837 15.0639 261.857 15.0639C260.681 15.0639 260.317 14.1679 259.953 13.2159C259.057 10.9479 257.825 8.76389 256.705 7.22389C256.089 6.35589 255.753 5.87989 255.753 5.43189C255.753 4.45189 256.509 3.63989 257.517 3.63989C258.497 3.63989 259.113 4.47989 259.785 5.40389C261.045 7.08389 261.913 8.73589 262.809 10.5839C263.229 11.4519 263.761 12.7679 263.761 13.2719Z" fill="#0F71A3"/>
<path d="M221.06 11.3399C222.068 10.9759 223.076 10.8079 224.168 10.8079C226.184 10.8079 228.312 11.2559 229.88 12.5719C231.42 13.8599 232.344 15.7639 232.344 17.7799C232.344 23.4359 226.52 25.6199 221.732 25.6199C218.68 25.6199 214.396 24.8359 214.396 20.9719C214.396 18.1439 217.084 16.8559 219.548 16.8559C221.284 16.8559 223.16 17.4159 224.252 18.8439C224.924 19.7119 225.176 20.7759 225.316 21.8399C226.968 21.1959 228.732 19.9639 228.732 18.0039C228.732 16.2399 227.864 15.1759 226.548 14.5879C225.54 14.1399 224.28 14.0279 223.16 14.0279C221.592 14.0279 220.248 14.1399 218.624 14.6719C216.972 15.2039 215.516 16.0159 213.724 17.4439C212.856 18.1439 212.212 18.4799 211.456 18.4799C210.364 18.4799 209.58 17.5559 209.58 16.5199C209.58 15.8479 209.888 15.2319 210.42 14.8399C211.372 14.1399 213.052 12.9639 214.172 12.1799C217.42 9.9119 220.808 7.7279 224.14 5.6279C222.516 5.8519 220.892 5.9639 219.24 6.0759C217.784 6.1879 215.964 6.2999 214.536 6.2999C213.444 6.2999 212.604 5.5439 212.604 4.4519C212.604 3.8079 212.884 3.2199 213.416 2.8839C213.892 2.5759 214.48 2.5759 215.04 2.5759C215.908 2.5759 216.86 2.6319 217.784 2.6319C220.024 2.6319 223.244 2.5479 224.504 2.4079C225.288 2.3239 226.072 2.2959 226.856 2.2959C228.284 2.2959 229.488 2.9399 229.488 4.5079C229.488 5.7399 228.62 6.5239 227.696 7.1959C225.596 8.7359 223.328 10.1079 221.06 11.3399ZM221.508 22.2879C221.424 20.9439 220.864 19.9079 219.38 19.9079C218.82 19.9079 217.952 20.1039 217.952 20.8039C217.952 21.9239 219.94 22.3439 220.78 22.3439C221.004 22.3439 221.256 22.3159 221.508 22.2879Z" fill="#0F71A3"/>
<path d="M190.848 9.18416C191.688 9.07216 192.528 8.98816 193.368 8.98816C198.688 8.98816 203.84 11.8722 203.84 17.7522C203.84 20.4122 202.496 22.8482 200.34 24.3882C198.772 25.5082 196.588 26.3202 194.628 26.3202C193.536 26.3202 192.752 25.5082 192.752 24.4162C192.752 23.0722 193.508 22.6522 194.712 22.4562C197.288 22.0082 199.892 20.5802 199.892 17.6122C199.892 15.5402 198.576 13.7202 196.644 13.0202C196.084 16.3802 194.068 19.4042 191.604 21.7002C191.716 22.1762 191.772 22.6522 191.772 22.9322C191.772 23.8842 190.988 24.6962 190.008 24.6962C189.42 24.6962 188.832 24.3882 188.524 23.9122C187.32 24.5282 186.032 25.0322 184.66 25.0322C181.356 25.0322 179.508 22.3722 179.508 19.2642C179.508 14.7562 182.98 11.2282 187.152 10.1082C187.152 9.35216 187.152 8.65216 187.208 7.75616C186.508 7.75616 183.484 7.75616 182.952 7.75616C181.832 7.72816 181.076 7.02816 181.076 5.96416C181.076 5.29216 181.608 4.48016 182.28 4.31216C183.008 4.14416 186.284 4.14416 187.404 4.14416C187.488 2.63216 187.572 0.868164 189.364 0.868164C190.624 0.868164 191.408 1.51216 191.408 2.80016C191.408 3.08016 191.352 3.66816 191.296 4.08816C192.472 4.08816 193.788 4.00416 194.992 3.92016C196.588 3.80816 198.856 3.72416 199.668 3.72416C200.704 3.72416 201.516 4.34016 201.516 5.40416C201.516 6.10416 201.208 6.88816 200.508 7.02816C199.444 7.25216 192.696 7.58816 190.932 7.64416C190.876 8.17616 190.848 8.68016 190.848 9.18416ZM190.82 12.5442C190.82 14.1402 190.848 15.7642 191.016 17.3602C192.164 15.9322 192.92 14.3082 193.284 12.5162C192.948 12.4602 192.612 12.4602 192.276 12.4602C191.8 12.4602 191.296 12.4602 190.82 12.5442ZM187.18 13.6362C185.108 14.7562 183.232 16.4642 183.232 19.0122C183.232 20.1042 183.848 21.1682 185.08 21.1682C186.004 21.1682 186.956 20.7482 187.74 20.2722C187.432 18.0882 187.264 15.8482 187.18 13.6362Z" fill="#0F71A3"/>
<path d="M173.852 0C174.412 0 174.776 0.364001 175.056 0.784C175.532 1.512 176.036 2.436 176.036 3.332C176.036 3.976 175.56 4.452 174.916 4.452C174.328 4.452 173.992 3.976 173.74 3.472C173.264 2.548 172.816 1.624 172.816 1.008C172.816 0.447999 173.264 0 173.852 0ZM171.836 5.32C172.424 6.188 173.712 8.4 174.664 10.248C175.364 11.62 175.924 12.908 175.924 13.244C175.924 14.224 175 15.008 174.076 15.008C172.956 15.008 172.62 14.336 171.892 12.712C171.024 10.808 169.988 8.96 168.756 7.252C168.196 6.468 168.056 6.132 168.056 5.74C168.056 4.704 168.924 3.864 169.96 3.892C169.484 2.996 169.26 2.436 169.26 1.876C169.26 1.26 169.624 0.756001 170.268 0.756001C170.968 0.756001 171.472 1.232 171.808 1.792C172.2 2.464 172.676 3.696 172.676 4.228C172.676 4.76 172.396 5.208 171.836 5.32ZM159.908 10.304C159.404 12.768 158.76 15.232 157.864 17.612C157.108 19.6 156.24 21.644 155.036 23.408C154.532 24.164 154 24.864 153.048 24.864C152.012 24.864 151.004 24.052 151.004 22.988C151.004 22.428 151.284 21.896 152.348 20.188C154.084 17.416 155.232 14.336 155.932 10.668C154.868 10.808 153.048 11.004 152.628 11.004C151.508 11.004 150.836 10.332 150.836 9.212C150.836 8.26 151.452 7.56 152.376 7.364C153.748 7.084 155.176 6.972 156.576 6.888C156.688 5.852 156.772 3.92 156.8 3.192C156.856 1.904 157.808 1.372 158.732 1.372C159.264 1.372 159.74 1.512 160.104 1.876C160.664 2.436 160.664 3.192 160.664 3.92C160.664 4.844 160.58 5.74 160.468 6.664C160.944 6.636 161.42 6.636 161.896 6.636C166.824 6.636 168.924 8.82 168.924 13.72C168.924 16.184 168.56 19.012 167.888 21.252C167.16 23.66 165.648 25.62 162.932 25.62C161.784 25.62 159.824 25.368 158.844 24.724C158.34 24.388 158.116 23.8 158.116 23.212C158.116 22.204 158.816 21.28 159.852 21.28C160.132 21.28 160.524 21.364 161.084 21.588C161.504 21.756 161.952 21.812 162.4 21.812C164.024 21.812 164.444 20.132 164.724 18.844C165.06 17.276 165.284 15.54 165.284 13.86C165.284 10.948 164.164 10.248 161.392 10.248C160.888 10.248 160.384 10.276 159.908 10.304Z" fill="#0F71A3"/>
<path d="M122.949 13.0478V12.1798C122.025 11.4518 121.101 10.7518 120.233 9.99584C119.869 9.65985 119.589 9.29585 119.589 8.76385C119.589 7.92384 120.149 7.02784 121.101 7.02784C121.717 7.02784 122.249 7.41984 122.949 8.00784V5.37585C122.949 4.17184 124.041 3.24784 125.189 3.24784H132.805V2.57584C132.805 1.34384 133.337 0.839844 134.541 0.839844C135.941 0.839844 136.137 1.70784 136.137 2.88384V3.24784H143.165C144.425 3.24784 145.433 3.24784 145.433 4.84384C145.433 6.29985 144.285 6.29985 143.165 6.29985H126.757C126.449 6.29985 126.169 6.38384 126.169 6.74784V13.6918C126.169 17.2198 125.693 20.9158 124.153 24.1358C123.705 25.0318 123.061 26.1798 121.913 26.1798C121.101 26.1798 120.485 25.5358 120.485 24.7238C120.485 24.3598 120.569 24.0238 120.961 23.2118C121.857 21.2798 122.501 19.2638 122.753 17.1638C122.193 17.4998 121.493 17.9198 120.821 17.9198C119.869 17.9198 119.393 17.0798 119.393 16.2118C119.393 15.7358 119.673 15.3438 120.037 15.0638C121.017 14.3358 122.025 13.6638 122.949 13.0478ZM137.481 10.8918V12.5718H142.241C143.473 12.5718 144.677 13.6358 144.677 14.8118V22.5118C144.677 25.5078 143.641 26.4318 140.673 26.4318C139.749 26.4318 138.685 26.4038 137.789 26.0678C137.201 25.8438 136.977 25.2558 136.977 24.6678C136.977 23.8278 137.481 23.1278 138.377 23.1278C138.629 23.1278 138.881 23.1558 139.133 23.1838C139.693 23.2678 140.253 23.2958 140.505 23.2958C141.233 23.2958 141.597 23.2118 141.597 22.3998V20.8598C141.373 21.3918 140.813 21.8678 140.197 21.8678C138.881 21.8678 136.781 19.5718 136.025 18.5638C135.297 19.7118 133.337 21.8678 131.965 21.8678C131.265 21.8678 130.705 21.2238 130.537 20.5798V24.3598C130.537 25.7598 130.509 26.5998 128.829 26.5998C127.317 26.5998 127.317 25.5358 127.317 24.3598V15.2038C127.317 13.8038 128.157 12.5718 129.641 12.5718H134.289V10.8918H128.829C127.625 10.8918 126.561 10.8918 126.561 9.35184C126.561 7.95185 127.737 7.92384 128.829 7.92384H143.053C144.257 7.92384 145.293 7.92384 145.293 9.46384C145.293 10.8918 144.145 10.8918 143.053 10.8918H137.481ZM141.597 19.5998V16.0438C141.597 15.7358 141.485 15.5118 141.177 15.5118H137.677C138.237 16.8838 139.721 18.0878 140.897 18.9278C141.177 19.1238 141.429 19.3198 141.597 19.5998ZM134.177 15.5118H131.013C130.705 15.5118 130.537 15.7918 130.537 16.0718V19.9358C130.649 19.5438 130.929 19.3198 131.237 19.1238C131.993 18.5918 132.973 17.8358 133.505 17.0798C133.869 16.6038 134.037 16.0998 134.177 15.5118Z" fill="#0F71A3"/>
<path d="M110.097 11.9002H101.417C99.8487 11.9002 99.5127 11.2282 99.5127 10.2482C99.5127 9.35216 99.8767 8.62416 101.305 8.62416H106.401V6.86016H102.565C101.137 6.86016 100.325 6.77616 100.325 5.15216C100.325 3.64016 101.389 3.58416 102.565 3.58416H106.401V3.10816C106.401 1.68016 106.457 0.868164 108.137 0.868164C109.649 0.868164 109.649 1.93216 109.649 3.10816V3.58416H113.261C114.689 3.58416 115.501 3.64016 115.501 5.34816C115.501 6.60816 114.745 6.86016 113.261 6.86016H109.649V8.62416H114.549C115.921 8.62416 116.313 9.32416 116.313 10.2482C116.313 11.1162 116.033 11.9002 114.521 11.9002H113.457V14.0842H113.541C114.773 14.0842 115.837 14.0842 115.837 15.6802C115.837 17.2482 114.801 17.2482 113.541 17.2482H113.457V23.2122C113.457 24.0802 113.289 25.0882 112.533 25.6202C111.609 26.3202 110.265 26.4042 109.145 26.4042C108.249 26.4042 106.401 26.2362 105.701 25.7602C105.225 25.4522 105.029 24.9482 105.029 24.3882C105.029 23.5762 105.561 22.8482 106.457 22.8482C106.681 22.8482 107.297 22.9882 107.913 23.1562C108.361 23.2682 108.837 23.2962 109.313 23.2962C110.013 23.2962 110.097 23.1842 110.097 22.4282V17.2482H104.133C104.609 17.8082 105.085 18.3962 105.505 18.9842C105.953 19.5722 106.597 20.2442 106.597 20.9442C106.597 21.7842 105.729 22.5682 104.889 22.5682C104.413 22.5682 103.909 22.2042 103.573 21.7282C103.097 21.0842 102.509 20.2442 101.949 19.5442C101.417 18.8162 101.333 18.6202 101.333 18.2842C101.333 17.8922 101.501 17.5282 101.809 17.2482C100.409 17.2482 99.9607 16.6322 99.9607 15.6522C99.9607 15.4562 99.9887 15.2602 100.045 15.0642C99.5967 15.7082 97.9167 16.0442 97.1607 16.2402V23.6602C97.1607 25.5362 96.1247 26.4882 94.2487 26.4882C93.4647 26.4882 92.2327 26.2082 91.5887 25.8162C91.0847 25.5082 90.8887 24.9762 90.8887 24.5562C90.8887 23.7162 91.3647 22.9322 92.2607 22.9322C92.3727 22.9322 92.6247 22.9882 92.8767 23.0442C93.1567 23.1002 93.3807 23.1282 93.4647 23.1282C93.8287 23.1282 93.9687 22.7922 93.9687 22.4562V16.8282C93.3807 16.9122 92.7647 17.0242 92.1487 17.0242C91.2247 17.0242 90.5527 16.2962 90.5527 15.3722C90.5527 14.7282 90.8887 14.1122 91.5047 13.8882C91.9807 13.7202 93.3807 13.6362 93.9687 13.5522V8.90416H92.8207C91.5607 8.90416 90.5807 8.76416 90.5807 7.19616C90.5807 5.62816 91.5607 5.51616 92.8207 5.51616H93.9687V3.10816C93.9687 1.90416 93.9687 0.868164 95.5087 0.868164C97.0207 0.868164 97.1607 1.87616 97.1607 3.10816V5.51616H97.5807C98.8687 5.51616 99.8207 5.62816 99.8207 7.19616C99.8207 8.76416 98.8687 8.90416 97.5807 8.90416H97.1607V12.9642C97.6927 12.8242 98.6727 12.5722 98.8687 12.5722C99.7367 12.5722 100.297 13.4122 100.297 14.2242C100.297 14.3922 100.269 14.5602 100.213 14.7002C100.521 14.1962 101.025 14.0842 101.809 14.0842H110.097V11.9002Z" fill="#0F71A3"/>
<path d="M427.892 22.7749C435.83 42.8533 451.695 78.1432 420.434 88.628C411.721 91.5521 401.96 92.0028 392.777 92.3232C380.035 92.7638 367.26 92.3633 354.528 91.7825C328.574 90.5908 302.707 88.1674 276.742 87.196C268.226 86.8755 259.349 86.4249 250.93 87.937C239.662 89.9599 230.02 96.2388 223.829 105.061C218.861 112.151 215.913 120.934 216.536 129.396C216.896 134.323 219.244 141.463 225.991 141.042C233.252 140.581 235.545 133.091 235.458 127.533C235.338 119.311 231.691 111.05 226.046 104.731C219.2 97.0599 209.078 92.8339 198.247 93.3947C194.305 93.595 190.407 94.4062 186.542 95.0972C181.879 95.9283 177.228 96.7695 172.565 97.6007C145.607 102.387 118.441 106.854 91.0343 108.756C65.8664 110.509 37.2917 109.978 17.3757 93.545C3.66164 82.1989 -0.90244 64.0032 5.2558 48.1408C6.20574 45.6873 7.45048 43.2138 9.13199 41.1509C10.2566 39.7589 8.6734 38.4971 7.516 39.9091C3.44326 44.9062 1.36868 51.2251 0.462417 57.3438C-0.705901 65.295 0.320472 73.5467 3.75991 80.9471C13.3903 101.666 39.7812 110.559 62.6999 111.751C75.737 112.432 88.8833 111.51 101.844 110.249C116.049 108.867 130.178 106.914 144.253 104.701C155.925 102.868 167.554 100.835 179.171 98.7523C187.895 97.1801 197.133 94.6766 206.021 96.429C216.132 98.4319 224.081 105.111 228.656 113.443C231.997 119.512 234.781 128.164 231.811 134.823C229.627 139.74 223.382 139.41 220.86 134.903C217.256 128.474 219.123 119.712 221.733 113.303C225.478 104.08 232.958 96.2788 242.937 92.4434C251.389 89.1988 260.713 89.309 269.71 89.4892C294.78 90.01 319.784 92.4534 344.81 93.8053C357.815 94.5063 370.841 95.0571 383.867 94.9569C394.022 94.8768 404.406 94.5664 414.353 92.5335C424.857 90.3805 434.64 84.6724 439.051 75.3492C444.456 63.9231 440.984 50.5341 437.151 39.1781C435.077 33.0394 432.631 27.0109 430.25 20.9724C429.748 19.7106 427.444 21.5732 427.903 22.7348L427.892 22.7749Z" fill="#0F71A3"/>
</svg>
