<svg width="357" height="56" viewBox="0 0 357 56" fill="none" xmlns="http://www.w3.org/2000/svg">
<path d="M53.4233 45.3755C57.8473 39.6313 56.7769 31.3883 51.0327 26.9644L39.4443 18.0396L23.4238 38.8414L35.0122 47.7662C40.7564 52.1901 48.9994 51.1198 53.4233 45.3755Z" fill="#FDE67C"/>
<path d="M8.01123 10.4007C12.4352 4.6564 20.6781 3.58607 26.4224 8.01001L38.0108 16.9348L21.9903 37.7366L10.4019 28.8118C4.65763 24.3879 3.58729 16.1449 8.01123 10.4007Z" fill="white"/>
<path d="M94.123 15.4422V18.6535H94.9079C95.3718 18.6535 95.8 18.7249 96.1568 18.9033C96.6563 19.153 96.9061 19.7239 96.9061 20.2591C96.9061 20.83 96.5849 21.3296 96.1211 21.6507C95.8 21.8648 95.3004 21.9005 94.8723 21.9005H94.123V30.4281C94.123 33.5324 91.554 34.4957 88.8779 34.4957C87.7004 34.4957 85.1314 34.2817 84.1324 33.8535C83.4901 33.568 83.0976 33.1399 83.0976 32.4263C83.0976 31.4629 83.7399 30.7493 84.7033 30.7493C85.0958 30.7493 85.5239 30.8563 85.9521 30.9634C86.6657 31.1061 87.4507 31.2131 88.2 31.2131C90.5906 31.2131 90.5906 30.6779 90.5906 29.5004V21.9005H82.1343C82.6695 22.2573 84.1324 24.3624 84.953 25.5756C85.631 26.5746 85.845 27.0385 85.845 27.538C85.845 28.5014 85.0244 29.2507 84.061 29.2507C83.3117 29.2507 82.8836 28.7155 82.5267 28.1089C81.8845 27.0385 81.2422 25.9681 80.4929 25.0047C79.8864 24.2911 79.6723 23.8629 79.6723 23.3277C79.6723 22.7568 79.9577 22.2216 80.4573 21.9005H79.5652C78.9587 21.9005 78.3164 21.8648 77.8526 21.4009C77.4958 21.0441 77.3887 20.6873 77.3887 20.2591C77.3887 19.6882 77.6385 19.2244 78.1737 18.9033C78.5305 18.6892 78.9587 18.6535 79.4225 18.6535H90.5906V15.4422H78.9944C78.3878 15.4422 77.7812 15.4066 77.3174 14.9427C76.9962 14.6216 76.8178 14.2291 76.8178 13.7653C76.8178 13.1944 77.1033 12.6591 77.6028 12.3737C77.9596 12.1596 78.4235 12.1239 78.8873 12.1239H85.4169V8.87699H80.2075C79.0657 8.87699 78.2807 8.80563 77.8526 8.37746C77.5314 8.05634 77.353 7.62817 77.353 7.2C77.353 6.59343 77.6385 6.02254 78.138 5.77277C78.5662 5.55869 79.3512 5.52301 80.2075 5.52301H85.4169V4.0601C85.4169 3.41785 85.4526 2.81127 85.9164 2.34742C86.2375 2.0263 86.6657 1.8479 87.0939 1.8479C87.5577 1.8479 87.9859 2.0263 88.307 2.34742C88.7709 2.81127 88.8065 3.41785 88.8065 4.0601V5.52301H94.7295C95.3004 5.52301 95.907 5.59437 96.3352 6.02254C96.6563 6.34366 96.799 6.73615 96.799 7.2C96.799 7.77089 96.5136 8.3061 96.0141 8.62723C95.6929 8.84131 95.2648 8.87699 94.8366 8.87699C94.5155 8.87699 94.23 8.87699 93.9803 8.87699H88.8065V12.1239H95.3004C95.907 12.1239 96.5493 12.1596 97.0131 12.6235C97.3342 12.9446 97.477 13.3371 97.477 13.7653C97.477 14.3718 97.1915 14.8714 96.692 15.1925C96.3709 15.4066 95.907 15.4422 95.4432 15.4422H94.123ZM73.0714 7.87793H74.8197C75.2836 7.87793 75.6404 7.91361 75.9972 8.1277C76.4967 8.44883 76.7822 8.98404 76.7822 9.55493C76.7822 10.1615 76.4967 10.6967 75.9972 11.0178C75.6404 11.2319 75.1765 11.2676 74.7127 11.2676H73.0714V17.4047C73.785 17.262 74.7127 16.9052 75.3906 16.9052C76.2826 16.9052 76.9606 17.6901 76.9606 18.5108C76.9606 20.1521 74.3202 20.5446 73.0714 20.9014V30.4281C73.0714 31.5342 73.0357 32.6403 72.1793 33.461C71.3587 34.2817 70.1099 34.5314 68.9681 34.5314C67.5765 34.5314 65.293 34.353 65.293 32.4619C65.293 31.5342 65.9352 30.6779 66.9343 30.6779C67.1484 30.6779 67.3624 30.7136 67.5765 30.7493C67.7906 30.7849 68.3258 30.8563 68.5399 30.8563C69.5746 30.8563 69.6817 30.5709 69.6817 29.6075V21.5793C68.3615 21.8648 67.7193 21.9718 67.0056 21.9718C65.9709 21.9718 65.1859 21.2225 65.1859 20.1878C65.1859 19.5098 65.6855 18.7962 66.3634 18.6178C67.1484 18.4037 68.7897 18.2253 69.6817 18.0469V11.2676H67.5408C67.077 11.2676 66.7202 11.2319 66.3634 11.0178C65.8639 10.6967 65.5784 10.1615 65.5784 9.55493C65.5784 8.98404 65.8639 8.44883 66.3634 8.1277C66.7202 7.91361 67.0413 7.87793 67.5052 7.87793H69.6817V4.0601C69.6817 2.59719 70.2526 1.8479 71.3944 1.8479C72.6789 1.8479 73.0714 2.59719 73.0714 4.70235V7.87793ZM119.456 4.70235V3.81033C119.456 2.52583 119.884 1.59813 121.347 1.59813C122.775 1.59813 123.203 2.52583 123.203 3.81033V4.70235H131.267C132.408 4.70235 134.192 4.70235 134.192 6.2723C134.192 7.80657 132.944 7.91361 131.267 7.91361H111.143C110.607 7.91361 110.215 8.1277 110.215 8.73427V18.9033C110.215 23.399 109.43 27.3953 107.182 31.3202C106.504 32.4263 105.648 33.8535 104.542 33.8535C103.543 33.8535 102.686 33.2469 102.686 32.1051C102.686 31.784 103.007 31.0704 103.578 30.1784C105.291 27.4666 106.468 24.5051 106.718 21.3296C104.863 22.4713 103.792 23.0422 103.257 23.0422C102.33 23.0422 101.545 22.1859 101.545 21.2582C101.545 20.6159 101.901 20.0451 102.472 19.7239C103.293 19.2601 104.007 18.8676 104.756 18.4751C105.541 18.0826 106.112 17.7615 106.79 17.369V15.0141C106.04 14.5145 105.291 14.0507 104.506 13.5868C103.864 13.1944 103.186 12.8376 102.579 12.4094C102.08 12.0883 101.687 11.5174 101.687 10.9108C101.687 9.9831 102.472 9.09108 103.4 9.09108C104.042 9.09108 104.863 9.59061 106.79 10.7324V7.44977C106.79 5.59437 108.181 4.70235 109.894 4.70235H119.456ZM123.952 13.4441V16.0131H130.589C132.087 16.0131 133.372 16.9052 133.372 18.5108V30.6065C133.372 31.8197 133.122 33.0328 131.873 33.7464C130.767 34.4244 129.376 34.4244 128.127 34.4244C126.592 34.4244 124.701 34.246 123.345 33.6751C122.81 33.461 122.418 32.8544 122.418 32.2479C122.418 31.4272 123.096 30.4995 123.952 30.4995C124.273 30.4995 124.594 30.5709 124.951 30.6422C126.414 30.999 127.663 31.1774 128.234 31.1774C129.59 31.1774 129.982 30.8206 129.982 29.5004V20.0094C129.982 19.2958 129.804 19.153 129.126 19.153H124.023C124.452 21.4366 125.843 22.8282 127.663 24.2197C128.448 24.7906 129.447 25.5042 129.447 26.3962C129.447 27.3239 128.698 28.1446 127.734 28.1446C126.2 28.1446 123.238 24.7906 122.382 23.5418C121.526 24.8263 118.957 28.5014 117.315 28.5014C116.459 28.5014 115.71 27.7521 115.71 26.8958C115.71 26.2535 115.995 25.8253 116.423 25.4328C118.243 23.6845 119.92 21.722 120.348 19.153H115.817C115.246 19.153 114.889 19.3671 114.889 19.9737V32.2122C114.889 33.3896 114.782 34.5671 113.141 34.5671C111.678 34.5671 111.535 33.354 111.535 31.677V18.5821C111.535 17.0122 112.641 16.0131 114.176 16.0131H120.42V13.4441H113.783C112.284 13.4441 112.07 13.3014 111.642 12.9446C111.321 12.6948 111.214 12.3023 111.214 11.8742C111.214 11.3033 111.392 10.9108 111.892 10.5897C112.32 10.3042 113.284 10.2685 113.747 10.2685H132.23C132.872 10.2685 133.586 10.3399 134.05 10.8038C134.335 11.0892 134.442 11.446 134.442 11.8742C134.442 12.4451 134.192 12.8732 133.657 13.1944C133.3 13.4084 132.908 13.4441 132.48 13.4441C132.159 13.4441 131.873 13.4441 131.588 13.4441H123.952ZM166.305 20.723V22.0432H169.409C170.694 22.0432 171.586 22.507 171.586 23.6845C171.586 24.6479 170.801 25.3258 169.552 25.3258H166.305V29.3934C166.305 30.892 166.162 32.4976 164.842 33.4253C163.415 34.4244 161.167 34.4957 159.49 34.4957C158.134 34.4957 155.565 34.3887 154.388 33.7108C153.817 33.3896 153.531 32.9258 153.531 32.2479C153.531 31.2845 154.245 30.4638 155.244 30.4638C155.601 30.4638 156.136 30.5352 156.885 30.7136C157.706 30.9277 158.776 31.0704 160.025 31.0704C161.845 31.0704 162.701 30.892 162.701 28.8939V25.3258H148.215C149.143 26.2178 150.498 27.8948 151.391 29.0009C151.89 29.6432 152.461 30.3925 152.461 31.2488C152.461 32.2479 151.64 33.0328 150.641 33.0328C150.142 33.0328 149.785 32.7831 149.464 32.3906C148.5 31.1061 147.359 29.6432 146.181 28.43C145.682 27.9305 145.218 27.431 145.218 26.6817C145.218 26.1465 145.503 25.6826 145.896 25.3258H141.114C139.652 25.3258 138.938 24.7549 138.938 23.6845C138.938 22.6497 139.652 22.0432 140.972 22.0432H162.701V20.723H144.825C143.969 20.723 143.041 20.5803 142.363 20.1164C141.685 19.6526 141.293 18.5465 141.293 17.6901V11.1249C141.293 10.2685 141.65 9.26948 142.363 8.73427C143.077 8.19906 144.005 8.09202 144.825 8.09202H153.389V6.80751H141.293C140.044 6.80751 139.116 6.37934 139.116 5.30892C139.116 4.34554 139.901 3.81033 141.507 3.81033H153.389C153.389 2.56151 153.745 1.56245 155.208 1.56245C156.636 1.56245 156.992 2.59719 156.992 3.81033H169.052C170.48 3.81033 171.193 4.34554 171.193 5.30892C171.193 6.59343 170.194 6.80751 168.41 6.80751H156.992V8.09202H165.77C166.626 8.09202 167.518 8.16338 168.232 8.73427C168.945 9.30516 169.338 10.2685 169.338 11.1249V17.6901C169.338 19.5812 168.089 20.5803 166.305 20.723ZM153.389 12.8732V11.1249H145.931C145.218 11.1249 144.825 11.339 144.825 12.0883V12.8732H153.389ZM156.992 12.8732H165.663V12.0883C165.663 11.339 165.306 11.1249 164.592 11.1249H156.992V12.8732ZM153.389 15.9061H144.825V16.7267C144.825 17.476 145.218 17.7258 145.931 17.7258H153.389V15.9061ZM156.992 15.9061V17.7258H164.592C165.306 17.7258 165.663 17.476 165.663 16.7267V15.9061H156.992ZM180.328 16.6197V32.1765C180.328 32.8187 180.256 33.3896 179.828 33.8892C179.471 34.3173 179.043 34.3887 178.615 34.3887C178.008 34.3887 177.437 34.1389 177.152 33.6037C176.938 33.2112 176.867 32.6047 176.867 32.1408V5.09484C176.867 3.59625 178.222 2.38311 179.685 2.38311H188.284C189.854 2.38311 190.996 3.59625 190.996 5.13052V14.0864C190.996 15.6206 190.175 16.6197 188.534 16.6197H180.328ZM203.377 16.6197H195.349C193.851 16.6197 192.816 15.585 192.816 14.0864V4.88075C192.816 3.52489 193.922 2.38311 195.278 2.38311H204.127C205.625 2.38311 206.91 3.52489 206.91 5.05916V30.6065C206.91 33.7108 204.983 34.2817 202.271 34.2817C200.88 34.2817 196.848 34.2103 195.777 33.354C195.349 33.0328 195.064 32.7474 195.064 31.9624C195.064 31.0347 195.92 30.2854 196.812 30.2854C197.205 30.2854 198.453 30.4995 199.203 30.6065C200.095 30.7493 201.058 30.8563 201.95 30.8563C202.913 30.8563 203.377 30.5352 203.377 29.5361V16.6197ZM180.328 7.73521H187.535V6.34366C187.535 5.77277 187.392 5.55869 186.857 5.55869H180.934C180.47 5.55869 180.328 5.95117 180.328 6.34366V7.73521ZM196.17 7.73521H203.377V6.05822C203.377 5.73709 203.128 5.55869 202.806 5.55869H196.848C196.527 5.55869 196.17 5.84413 196.17 6.20094V7.73521ZM180.328 10.9108V13.23H186.964C187.464 13.23 187.535 12.9446 187.535 12.5164V10.9108H180.328ZM196.17 10.9108V12.6235C196.17 12.9803 196.491 13.23 196.812 13.23H203.377V10.9108H196.17ZM219.505 8.80563V31.5342C219.505 32.8187 219.505 34.3887 217.792 34.3887C216.008 34.3887 216.008 32.8544 216.008 31.5342V16.6911C215.544 17.5831 214.938 18.7962 213.76 18.7962C212.868 18.7962 211.976 18.0113 211.976 17.0836C211.976 16.4413 212.333 15.8704 212.833 15.1211C214.902 11.9812 216.472 7.55681 217.436 3.91737C217.792 2.56151 218.078 1.56245 219.291 1.56245C220.219 1.56245 221.004 2.31174 221.004 3.23944C221.004 4.52395 219.969 7.52113 219.505 8.80563ZM234.455 23.3634V31.9624C234.455 33.2469 234.384 34.3887 232.635 34.3887C230.887 34.3887 230.816 33.2469 230.816 31.9624V24.2554C229.531 26.6103 227.783 28.7155 225.749 30.4638C224.714 31.3915 223.358 32.4976 222.324 32.4976C221.432 32.4976 220.647 31.6056 220.647 30.7136C220.647 29.7859 221.432 29.2864 222.395 28.6441C224.786 27.0028 226.712 24.6835 228.033 22.0789H223.18C222.609 22.0789 222.074 21.9718 221.646 21.615C221.289 21.3296 221.182 20.8657 221.182 20.4375C221.182 19.831 221.396 19.3314 221.86 19.0817C222.395 18.7962 223.358 18.7606 224.036 18.7606H230.816V15.8704H225.642C223.43 15.8704 222.716 14.7286 222.716 12.6591V5.77277C222.716 3.70329 223.43 2.56151 225.642 2.56151H239.95C242.162 2.56151 242.876 3.70329 242.876 5.77277V12.6591C242.876 14.7286 242.162 15.8704 239.95 15.8704H234.455V18.7606H242.626C243.233 18.7606 243.839 18.9033 244.267 19.2601C244.624 19.5455 244.731 19.9737 244.731 20.4375C244.731 21.0084 244.481 21.5436 243.982 21.7934C243.661 21.9718 243.161 22.0789 242.733 22.0789C242.412 22.0789 242.127 22.0789 241.841 22.0789H237.524C238.915 24.3624 240.699 26.3249 242.84 27.8948C243.589 28.43 245.195 29.3577 245.195 30.4281C245.195 31.3915 244.303 32.2835 243.304 32.2835C242.697 32.2835 241.948 31.8554 241.092 31.1418C238.344 29.0723 236.097 26.3962 234.455 23.3634ZM226.284 7.09296V11.3746C226.284 12.0526 226.534 12.4807 227.248 12.4807H238.344C239.094 12.4807 239.308 12.0526 239.308 11.3746V7.09296C239.308 6.41502 239.094 5.95117 238.344 5.95117H227.248C226.534 5.95117 226.284 6.41502 226.284 7.09296ZM281.696 9.01972C281.696 9.91174 281.054 10.7681 280.091 10.7681C278.664 10.7681 274.418 7.87793 273.097 6.80751C272.598 6.41502 271.492 5.3446 270.85 5.3446C270.314 5.3446 269.101 6.45071 268.637 6.80751C267.46 7.69953 262.857 10.7681 261.573 10.7681C260.609 10.7681 259.896 9.80469 259.896 8.91267C259.896 7.48545 261.501 6.91455 262.572 6.34366C264.213 5.48733 265.819 4.45259 267.353 3.41785C268.388 2.70423 269.565 1.74085 270.921 1.74085C272.17 1.74085 273.204 2.66855 274.168 3.34648C276.13 4.73803 278.093 6.0939 280.234 7.12864C281.09 7.55681 281.696 7.98498 281.696 9.01972ZM253.116 26.3249V32.2479C253.116 33.9249 252.474 34.5314 251.404 34.5314C250.369 34.5314 249.691 33.8535 249.691 32.2835V5.59437C249.691 3.73897 251.047 2.73991 252.831 2.73991H257.148C258.004 2.73991 258.754 3.1324 259.218 3.84601C259.61 4.48827 259.61 5.23756 259.61 5.95117C259.61 8.94836 258.861 11.553 257.719 14.2648C259.289 16.9052 260.395 19.2244 260.395 22.3286C260.395 25.4328 258.968 27.538 255.685 27.538C254.722 27.538 253.58 27.2882 253.116 26.3249ZM253.116 24.8976C253.366 24.3981 253.651 24.077 254.508 24.077H255.257C256.684 24.077 256.97 22.8995 256.97 21.722C256.97 19.0817 255.935 16.9765 254.543 14.8357C254.401 14.5859 254.258 14.3361 254.258 14.0507C254.258 13.8366 254.294 13.7296 254.65 12.9803C255.435 11.339 256.149 9.59061 256.149 7.73521V7.41408C256.149 6.91455 256.113 6.20094 255.65 6.20094H254.08C253.58 6.20094 253.116 6.2723 253.116 6.87887V24.8976ZM273.668 25.3258C275.452 28.1446 277.593 29.7502 280.626 31.1774C281.34 31.4986 281.911 31.9624 281.911 32.8187C281.911 33.8535 281.09 34.5314 280.126 34.5314C279.449 34.5314 278.771 34.246 278.164 33.9605C275.345 32.569 273.026 30.3211 271.313 27.7164C269.494 30.3925 266.925 32.569 263.927 33.8178C263 34.2103 261.965 34.5314 260.966 34.5314C259.967 34.5314 259.253 33.7108 259.253 32.7117C259.253 31.3915 260.859 31.0704 261.858 30.7136C264.891 29.6075 266.925 28.0019 268.709 25.3258H264.641C263.963 25.3258 263.321 25.2544 262.714 24.969C262.072 24.6479 261.537 23.9699 261.537 23.185V17.2976C261.537 15.7991 262.964 15.1925 264.641 15.1925H269.387V13.23H265.176C264.177 13.23 262.964 12.9089 262.964 11.6244C262.964 10.3756 264.034 10.0188 265.248 10.0188H276.558C278.342 10.0188 279.056 10.5897 279.056 11.6244C279.056 12.9089 278.128 13.23 276.523 13.23H272.705V15.1925H277.45C278.128 15.1925 278.735 15.2638 279.377 15.585C280.019 15.9061 280.555 16.5483 280.555 17.2976V23.185C280.555 23.9699 280.019 24.6479 279.377 24.969C278.735 25.2901 278.128 25.3258 277.45 25.3258H273.668ZM269.387 18.4394H265.676C265.319 18.4394 264.927 18.4751 264.927 18.9033V21.5793C264.927 22.0075 265.319 22.0432 265.676 22.0432H269.387V18.4394ZM272.705 18.4394V22.0432H276.451C276.808 22.0432 277.201 22.0075 277.201 21.5793V18.9033C277.201 18.4751 276.808 18.4394 276.451 18.4394H272.705ZM305.281 15.8704C305.281 20.9728 304.461 24.8263 300.607 28.4657C298.966 30.0357 294.72 33.1399 292.436 33.1399C291.259 33.1399 290.51 32.1408 290.51 30.999C290.51 29.7859 291.295 29.4291 292.258 29.0009C295.434 27.6807 298.538 25.6826 300.072 22.507C301.071 20.4375 301.249 18.1183 301.285 15.8704H290.01C288.476 15.8704 287.12 15.7277 287.12 13.8009C287.12 11.8742 288.476 11.7315 290.01 11.7315H301.285V5.84413C301.285 4.30986 301.357 2.954 303.319 2.954C305.246 2.954 305.281 4.34554 305.281 5.84413V11.7315H314.273C315.772 11.7315 317.127 11.8742 317.127 13.8009C317.127 15.7277 315.807 15.8704 314.273 15.8704H305.281ZM355.199 4.95211C355.199 5.52301 354.842 6.05822 354.235 6.05822C353.771 6.05822 353.593 5.84413 353.058 5.05916C352.665 4.48827 352.094 3.84601 351.595 3.27512C350.81 2.38311 350.56 1.99062 350.56 1.70517C350.56 1.31268 351.024 0.991556 351.381 0.991556C352.558 0.991556 355.199 3.81033 355.199 4.95211ZM348.134 3.23944C348.134 2.81127 348.526 2.49015 348.955 2.49015C349.454 2.49015 350.56 3.66761 351.06 4.27418C351.809 5.20188 352.487 6.16526 352.487 6.77183C352.487 7.30704 352.094 7.77089 351.524 7.77089C350.953 7.77089 350.596 7.2 350.168 6.48639C349.847 5.95117 349.454 5.45164 349.062 4.95211C348.455 4.20282 348.134 3.63193 348.134 3.23944ZM331.364 5.70141V13.9437C336.288 13.7653 342.853 12.5878 347.385 10.554C348.741 9.94742 349.026 9.87605 349.418 9.87605C350.489 9.87605 351.238 10.9108 351.238 11.9099C351.238 12.4094 351.095 12.9803 350.667 13.3014C349.811 13.9793 348.348 14.5502 347.242 14.9427C342.461 16.7624 336.466 17.8329 331.364 17.9399V24.2197C331.364 25.5399 331.471 26.3249 332.506 26.8244C334.29 27.7521 337.394 27.8234 339.392 27.8234C342.354 27.8234 346.243 27.538 349.133 27.0028C349.525 26.9314 349.811 26.8958 350.061 26.8958C351.167 26.8958 351.845 27.8948 351.845 28.9296C351.845 29.8572 351.452 30.5709 350.525 30.8563C348.312 31.5342 342.782 31.7483 340.284 31.7483C337.109 31.7483 331.792 31.7126 329.223 29.6788C327.974 28.6441 327.51 26.9314 327.51 25.3615V5.70141C327.51 4.02442 328.331 3.48921 329.437 3.48921C330.472 3.48921 331.364 3.91737 331.364 5.70141Z" fill="white"/>
<path d="M79.3549 45.8152V50.4356C79.3549 51.1191 79.2971 51.8314 78.8928 52.4185C78.4212 53.0924 77.5837 53.2752 76.8137 53.2752C75.9281 53.2752 74.9462 53.0057 74.542 52.149C74.3398 51.7255 74.2532 51.1287 74.2532 50.6666V50.5896C74.2532 49.9736 74.6286 49.7811 75.1869 49.7811C75.7356 49.7811 76.0917 50.0121 76.0917 50.5896V50.6666C76.0917 51.1768 76.1399 51.6485 76.7848 51.6485C77.4586 51.6485 77.5067 51.0709 77.5067 50.4356V45.8152C77.5067 45.1799 77.8436 44.9682 78.45 44.9682C79.0565 44.9682 79.3452 45.2088 79.3549 45.8152ZM88.2052 45.8152V52.4185C88.2052 53.0635 87.8683 53.2752 87.2619 53.2752C86.6747 53.2752 86.3667 53.025 86.3667 52.4185V45.8152C86.3667 45.1799 86.694 44.9682 87.3004 44.9682C87.9068 44.9682 88.1956 45.2088 88.2052 45.8152ZM100.556 48.8281C101.384 49.1169 101.846 49.8773 101.846 50.7437C101.846 52.2357 100.614 53.0635 99.2183 53.0635H96.5904C95.6086 53.0635 95.2043 52.6592 95.2043 51.6774V46.5564C95.2043 45.5746 95.6086 45.1703 96.5904 45.1703H99.0161C99.5359 45.1703 100.171 45.2858 100.624 45.5553C101.22 45.9211 101.586 46.5275 101.586 47.2399C101.586 47.9618 101.211 48.5201 100.556 48.8281ZM97.0525 48.2602H98.814C99.3049 48.2602 99.6996 48.0099 99.6996 47.4805C99.6996 46.9415 99.2856 46.7682 98.814 46.7682H97.322C97.1583 46.7682 97.0525 46.8741 97.0525 47.0377V48.2602ZM97.0525 49.7811V51.1961C97.0525 51.3693 97.1583 51.4752 97.322 51.4752H98.814C99.3723 51.4752 99.9595 51.2442 99.9595 50.5896C99.9595 49.9255 99.3627 49.7811 98.814 49.7811H97.0525ZM111.16 48.1158L112.932 45.4495C113.114 45.1703 113.355 44.9682 113.702 44.9682C114.221 44.9682 114.693 45.4206 114.693 45.873C114.693 46.0366 114.616 46.2195 114.529 46.3543L112.085 49.9928V52.4185C112.085 53.0635 111.748 53.2752 111.141 53.2752C110.554 53.2752 110.236 53.025 110.236 52.4185V49.9928L107.791 46.3543C107.695 46.2195 107.618 46.0366 107.618 45.873C107.618 45.4302 108.09 44.9682 108.619 44.9682C108.966 44.9682 109.206 45.1703 109.389 45.4495L111.16 48.1158ZM124.224 44.9682C125.476 44.9682 126.573 45.411 127.334 46.4409C127.882 47.2014 128.056 48.2698 128.056 49.1939C128.056 50.4645 127.68 51.687 126.65 52.4956C125.957 53.0442 125.1 53.2752 124.224 53.2752C123.339 53.2752 122.501 53.0442 121.789 52.4956C120.73 51.6774 120.384 50.4068 120.384 49.1169C120.384 47.8078 120.73 46.5853 121.789 45.7382C122.482 45.1896 123.349 44.9682 124.224 44.9682ZM124.224 46.5853C123.58 46.5853 123.06 46.826 122.704 47.365C122.347 47.8848 122.28 48.5008 122.28 49.1169C122.28 49.7522 122.347 50.3394 122.704 50.8784C123.05 51.4175 123.589 51.6485 124.224 51.6485C124.86 51.6485 125.38 51.4175 125.745 50.8784C126.092 50.3586 126.169 49.7329 126.169 49.1169C126.169 48.4912 126.102 47.904 125.745 47.365C125.399 46.826 124.85 46.5853 124.224 46.5853ZM136.577 45.8152V50.0987C136.577 50.4164 136.605 50.7629 136.759 51.0517C137 51.4752 137.52 51.6485 137.982 51.6485C138.444 51.6485 138.964 51.4752 139.195 51.0517C139.349 50.7629 139.387 50.4164 139.387 50.0987V45.8152C139.387 45.1992 139.715 44.9682 140.311 44.9682C140.908 44.9682 141.235 45.1896 141.235 45.8152V50.1565C141.235 50.8688 141.11 51.6292 140.658 52.1972C140.013 52.9865 138.964 53.2752 137.982 53.2752C137.019 53.2752 135.951 52.9865 135.316 52.2068C134.854 51.6292 134.728 50.888 134.728 50.1565V45.8152C134.728 45.1992 135.056 44.9682 135.652 44.9682C136.297 44.9682 136.557 45.2088 136.577 45.8152ZM151.155 44.9585C151.983 44.9585 152.898 45.1414 153.552 45.6901C153.957 46.027 154.313 46.5468 154.313 47.0858C154.313 47.6056 153.841 47.7597 153.398 47.7597C152.955 47.7597 152.696 47.673 152.522 47.3169C152.262 46.7874 152.118 46.5853 151.175 46.5853C150.761 46.5853 149.943 46.6431 149.943 47.2014C149.943 47.7212 150.539 47.9233 151.242 48.1543C151.954 48.3853 153.042 48.7511 153.658 49.1554C154.226 49.5308 154.505 50.0217 154.505 50.7052C154.505 51.3693 154.236 51.9758 153.774 52.4378C153.1 53.0924 152.262 53.2752 151.358 53.2752C150.424 53.2752 149.394 53.0827 148.672 52.4474C148.277 52.1009 147.902 51.5715 147.902 51.0228C147.902 50.4741 148.374 50.272 148.855 50.272C149.076 50.272 149.288 50.3201 149.49 50.426C149.683 50.5319 149.721 50.6281 149.817 51.0228C149.952 51.5522 150.847 51.6485 151.319 51.6485C151.627 51.6485 152.06 51.6292 152.32 51.456C152.493 51.3405 152.609 51.0902 152.609 50.888C152.609 50.7725 152.561 50.6474 152.484 50.5704C152.205 50.3105 151.319 50.0217 150.934 49.8966C150.183 49.6559 149.105 49.319 148.547 48.7511C148.21 48.395 148.046 47.8655 148.046 47.3842C148.046 46.6527 148.374 45.9885 148.961 45.5553C149.577 45.1029 150.414 44.9585 151.155 44.9585ZM163.023 48.2794H165.92C166.46 48.2794 166.719 48.5008 166.719 49.0495C166.719 49.5886 166.431 49.8003 165.92 49.8003H163.023V51.1961C163.023 51.3693 163.119 51.4752 163.293 51.4752H166.45C166.999 51.4752 167.268 51.7159 167.268 52.2742C167.268 52.8228 166.979 53.0635 166.45 53.0635H162.561C161.579 53.0635 161.175 52.6592 161.175 51.6774V46.5564C161.175 45.5746 161.579 45.1703 162.561 45.1703H166.219C166.758 45.1703 167.037 45.4206 167.037 45.9693C167.037 46.5275 166.758 46.7682 166.219 46.7682H163.293C163.119 46.7682 163.023 46.8741 163.023 47.0377V48.2794ZM178.432 50.2912V45.8152C178.432 45.1799 178.769 44.9682 179.375 44.9682C179.963 44.9682 180.28 45.2088 180.28 45.8152V52.4089C180.28 53.1694 179.616 53.2752 179.01 53.2752C178.49 53.2752 177.999 53.0827 177.787 52.5822L175.602 47.5383C175.602 47.5479 175.602 47.5671 175.612 47.7597L175.621 47.9522V52.4185C175.621 53.0635 175.284 53.2752 174.678 53.2752C174.091 53.2752 173.773 53.025 173.773 52.4185V45.8249C173.773 45.0741 174.428 44.9585 175.044 44.9585C175.554 44.9585 176.045 45.1511 176.266 45.6612L178.451 50.7052C178.451 50.6955 178.451 50.6763 178.451 50.6666L178.432 50.2912ZM193.261 47.2784L192.183 52.5341C192.145 52.7169 192.01 52.9287 191.875 53.0442C191.673 53.2175 191.403 53.2752 191.143 53.2752C190.874 53.2752 190.614 53.2271 190.412 53.0442C190.277 52.9287 190.133 52.7073 190.104 52.5341L189.026 47.2784H189.007L189.112 48.7415V52.4185C189.112 53.0539 188.776 53.2752 188.169 53.2752C187.572 53.2752 187.264 53.025 187.264 52.4185V45.8922C187.264 45.6323 187.332 45.3339 187.543 45.1607C187.774 44.9874 188.323 44.9585 188.612 44.9585C189.382 44.9585 189.757 45.0933 189.921 45.8922L191.047 51.3597C191.057 51.4078 191.086 51.4848 191.143 51.4848C191.201 51.4848 191.23 51.4078 191.24 51.3597L192.356 45.8922C192.414 45.6323 192.52 45.3051 192.741 45.1511C193.001 44.9778 193.54 44.9585 193.858 44.9585C194.541 44.9585 195.013 45.1222 195.013 45.8922V52.4185C195.013 53.0539 194.686 53.2752 194.079 53.2752C193.492 53.2752 193.175 53.025 193.175 52.4185V48.7415L193.28 47.2784H193.261ZM205.538 44.9682C206.79 44.9682 207.887 45.411 208.647 46.4409C209.196 47.2014 209.369 48.2698 209.369 49.1939C209.369 50.4645 208.994 51.687 207.964 52.4956C207.271 53.0442 206.414 53.2752 205.538 53.2752C204.653 53.2752 203.815 53.0442 203.103 52.4956C202.044 51.6774 201.697 50.4068 201.697 49.1169C201.697 47.8078 202.044 46.5853 203.103 45.7382C203.796 45.1896 204.662 44.9682 205.538 44.9682ZM205.538 46.5853C204.893 46.5853 204.373 46.826 204.017 47.365C203.661 47.8848 203.594 48.5008 203.594 49.1169C203.594 49.7522 203.661 50.3394 204.017 50.8784C204.364 51.4175 204.903 51.6485 205.538 51.6485C206.173 51.6485 206.693 51.4175 207.059 50.8784C207.406 50.3586 207.483 49.7329 207.483 49.1169C207.483 48.4912 207.415 47.904 207.059 47.365C206.712 46.826 206.164 46.5853 205.538 46.5853ZM220.701 50.2912V45.8152C220.701 45.1799 221.038 44.9682 221.644 44.9682C222.231 44.9682 222.549 45.2088 222.549 45.8152V52.4089C222.549 53.1694 221.885 53.2752 221.279 53.2752C220.759 53.2752 220.268 53.0827 220.056 52.5822L217.871 47.5383C217.871 47.5479 217.871 47.5671 217.881 47.7597L217.89 47.9522V52.4185C217.89 53.0635 217.553 53.2752 216.947 53.2752C216.36 53.2752 216.042 53.025 216.042 52.4185V45.8249C216.042 45.0741 216.697 44.9585 217.313 44.9585C217.823 44.9585 218.314 45.1511 218.535 45.6612L220.72 50.7052C220.72 50.6955 220.72 50.6763 220.72 50.6666L220.701 50.2912ZM231.381 48.0773H234.192V45.8152C234.192 45.1992 234.519 44.9682 235.116 44.9682C235.713 44.9682 236.04 45.1896 236.04 45.8152V52.4185C236.04 53.0442 235.713 53.2752 235.116 53.2752C234.519 53.2752 234.192 53.0442 234.192 52.4185V49.6656H231.381V52.4185C231.381 53.0442 231.054 53.2752 230.457 53.2752C229.861 53.2752 229.533 53.0442 229.533 52.4185V45.8152C229.533 45.1992 229.861 44.9682 230.457 44.9682C231.054 44.9682 231.381 45.1992 231.381 45.8152V48.0773ZM246.547 44.9682C247.799 44.9682 248.896 45.411 249.657 46.4409C250.205 47.2014 250.379 48.2698 250.379 49.1939C250.379 50.4645 250.003 51.687 248.973 52.4956C248.28 53.0442 247.423 53.2752 246.547 53.2752C245.662 53.2752 244.824 53.0442 244.112 52.4956C243.053 51.6774 242.707 50.4068 242.707 49.1169C242.707 47.8078 243.053 46.5853 244.112 45.7382C244.805 45.1896 245.672 44.9682 246.547 44.9682ZM246.547 46.5853C245.903 46.5853 245.383 46.826 245.027 47.365C244.67 47.8848 244.603 48.5008 244.603 49.1169C244.603 49.7522 244.67 50.3394 245.027 50.8784C245.373 51.4175 245.912 51.6485 246.547 51.6485C247.183 51.6485 247.703 51.4175 248.068 50.8784C248.415 50.3586 248.492 49.7329 248.492 49.1169C248.492 48.4912 248.425 47.904 248.068 47.365C247.722 46.826 247.173 46.5853 246.547 46.5853ZM258.9 48.1543L262.018 45.2762C262.201 45.1029 262.384 44.9682 262.644 44.9682C263.096 44.9682 263.635 45.4495 263.635 45.9115C263.635 46.1425 263.501 46.412 263.337 46.5661L261.104 48.6356L263.626 51.7929C263.751 51.9469 263.838 52.149 263.838 52.3415C263.838 52.8132 263.308 53.2752 262.808 53.2752C262.567 53.2752 262.375 53.1694 262.22 52.9865L259.737 49.8966L258.9 50.6859V52.4185C258.9 53.0539 258.563 53.2752 257.956 53.2752C257.369 53.2752 257.051 53.025 257.051 52.4185V45.8152C257.051 45.1799 257.388 44.9682 257.995 44.9682C258.582 44.9682 258.9 45.2088 258.9 45.8152V48.1543ZM272.043 48.2794H274.94C275.479 48.2794 275.739 48.5008 275.739 49.0495C275.739 49.5886 275.45 49.8003 274.94 49.8003H272.043V51.1961C272.043 51.3693 272.139 51.4752 272.312 51.4752H275.47C276.018 51.4752 276.288 51.7159 276.288 52.2742C276.288 52.8228 275.999 53.0635 275.47 53.0635H271.581C270.599 53.0635 270.195 52.6592 270.195 51.6774V46.5564C270.195 45.5746 270.599 45.1703 271.581 45.1703H275.239C275.778 45.1703 276.057 45.4206 276.057 45.9693C276.057 46.5275 275.778 46.7682 275.239 46.7682H272.312C272.139 46.7682 272.043 46.8741 272.043 47.0377V48.2794ZM287.452 50.2912V45.8152C287.452 45.1799 287.789 44.9682 288.395 44.9682C288.982 44.9682 289.3 45.2088 289.3 45.8152V52.4089C289.3 53.1694 288.636 53.2752 288.029 53.2752C287.51 53.2752 287.019 53.0827 286.807 52.5822L284.622 47.5383C284.622 47.5479 284.622 47.5671 284.631 47.7597L284.641 47.9522V52.4185C284.641 53.0635 284.304 53.2752 283.698 53.2752C283.111 53.2752 282.793 53.025 282.793 52.4185V45.8249C282.793 45.0741 283.448 44.9585 284.064 44.9585C284.574 44.9585 285.065 45.1511 285.286 45.6612L287.471 50.7052C287.471 50.6955 287.471 50.6763 287.471 50.6666L287.452 50.2912ZM309.443 50.2912V45.8152C309.443 45.1799 309.78 44.9682 310.386 44.9682C310.973 44.9682 311.291 45.2088 311.291 45.8152V52.4089C311.291 53.1694 310.627 53.2752 310.02 53.2752C309.5 53.2752 309.01 53.0827 308.798 52.5822L306.613 47.5383C306.613 47.5479 306.613 47.5671 306.622 47.7597L306.632 47.9522V52.4185C306.632 53.0635 306.295 53.2752 305.689 53.2752C305.101 53.2752 304.784 53.025 304.784 52.4185V45.8249C304.784 45.0741 305.438 44.9585 306.054 44.9585C306.565 44.9585 307.056 45.1511 307.277 45.6612L309.462 50.7052C309.462 50.6955 309.462 50.6763 309.462 50.6666L309.443 50.2912ZM319.844 51.5811L319.449 52.6881C319.343 52.9865 319.151 53.2752 318.795 53.2752C318.333 53.2752 317.64 53.0057 317.64 52.4571C317.64 52.3319 317.669 52.1875 317.717 52.0624L319.825 46.1714C320.114 45.3725 320.566 44.9682 321.432 44.9682C322.299 44.9682 322.761 45.3725 323.049 46.1714L325.157 52.0624C325.206 52.1972 325.244 52.3319 325.244 52.4763C325.244 52.9961 324.532 53.2752 324.089 53.2752C323.733 53.2752 323.54 52.9961 323.425 52.6881L323.03 51.5811H319.844ZM320.412 50.0121H322.472L321.673 47.7789C321.634 47.673 321.567 47.4998 321.442 47.4998C321.307 47.4998 321.24 47.673 321.201 47.7789L320.412 50.0121ZM332.226 45.5746L333.728 50.1854C333.766 50.3105 333.814 50.4838 333.968 50.4838C334.093 50.4838 334.151 50.3009 334.19 50.1854L335.691 45.5746C335.816 45.1992 336.076 44.9682 336.48 44.9682C336.923 44.9682 337.491 45.2666 337.491 45.7671C337.491 45.8634 337.453 46.1233 337.424 46.2099L335.479 52.1972C335.239 52.9383 334.719 53.2752 333.959 53.2752C333.198 53.2752 332.678 52.9383 332.438 52.1972L330.493 46.2099C330.464 46.1136 330.426 45.8634 330.426 45.7575C330.426 45.2666 330.994 44.9682 331.437 44.9682C331.85 44.9682 332.091 45.1896 332.226 45.5746ZM345.705 45.8152V52.4185C345.705 53.0635 345.368 53.2752 344.762 53.2752C344.175 53.2752 343.867 53.025 343.867 52.4185V45.8152C343.867 45.1799 344.194 44.9682 344.8 44.9682C345.407 44.9682 345.695 45.2088 345.705 45.8152Z" fill="white"/>
</svg>
