<svg width="1096" height="3" viewBox="0 0 1096 3" fill="none" xmlns="http://www.w3.org/2000/svg">
<path d="M7.51244 0C8.3073 0 8.95201 0.646403 8.95201 1.44336C8.95201 2.24032 8.3073 2.88672 7.51244 2.88672H1.43957C0.644705 2.88672 0 2.24032 0 1.44336C0 0.646403 0.644705 0 1.43957 0H7.51244ZM31.8039 0C32.5988 0 33.2435 0.646403 33.2435 1.44336C33.2435 2.24032 32.5988 2.88672 31.8039 2.88672H19.6582C18.8634 2.88668 18.2186 2.24029 18.2186 1.44336C18.2186 0.646425 18.8634 3.50382e-05 19.6582 0H31.8039ZM56.0954 0C56.8903 0 57.535 0.646403 57.535 1.44336C57.535 2.24032 56.8903 2.88672 56.0954 2.88672H43.9497C43.1549 2.88664 42.5111 2.24026 42.5111 1.44336C42.5111 0.646454 43.1549 8.24393e-05 43.9497 0H56.0954ZM80.3869 0C81.1818 0 81.8265 0.646403 81.8265 1.44336C81.8265 2.24032 81.1818 2.88672 80.3869 2.88672H68.2412C67.4464 2.88659 66.8026 2.24023 66.8026 1.44336C66.8026 0.646484 67.4464 0.000131896 68.2412 0H80.3869ZM104.678 0C105.473 0 106.118 0.646403 106.118 1.44336C106.118 2.24032 105.473 2.88672 104.678 2.88672H92.5326C91.7379 2.88654 91.0941 2.2402 91.0941 1.44336C91.0941 0.646515 91.7379 0.000181351 92.5326 0H104.678ZM128.97 0C129.765 0 130.409 0.646403 130.409 1.44336C130.409 2.24032 129.765 2.88672 128.97 2.88672H116.824C116.029 2.88648 115.386 2.24017 115.386 1.44336C115.386 0.646548 116.029 0.000234918 116.824 0H128.97ZM153.262 0C154.057 0.000222554 154.701 0.64654 154.701 1.44336C154.701 2.24018 154.057 2.8865 153.262 2.88672H141.117C140.322 2.88672 139.677 2.24032 139.677 1.44336C139.677 0.646403 140.322 0 141.117 0H153.262ZM177.554 0C178.349 0.000173109 178.992 0.64651 178.992 1.44336C178.992 2.24021 178.349 2.88655 177.554 2.88672H165.408C164.613 2.88672 163.969 2.24032 163.969 1.44336C163.969 0.646403 164.613 0 165.408 0H177.554ZM201.845 0C202.64 0.000115412 203.284 0.646474 203.284 1.44336C203.284 2.24024 202.64 2.8866 201.845 2.88672H189.7C188.905 2.88672 188.26 2.24032 188.26 1.44336C188.26 0.646403 188.905 0 189.7 0H201.845ZM226.137 0C226.932 7.41949e-05 227.576 0.646449 227.576 1.44336C227.576 2.24027 226.932 2.88664 226.137 2.88672H213.991C213.196 2.88672 212.551 2.24032 212.551 1.44336C212.551 0.646403 213.196 0 213.991 0H226.137ZM250.428 0C251.223 2.47333e-05 251.868 0.646418 251.868 1.44336C251.868 2.2403 251.223 2.88669 250.428 2.88672H238.283C237.488 2.88672 236.843 2.24032 236.843 1.44336C236.843 0.646403 237.488 0 238.283 0H250.428ZM274.72 0C275.515 0 276.159 0.646403 276.159 1.44336C276.159 2.24032 275.515 2.88672 274.72 2.88672H262.574C261.779 2.88672 261.134 2.24032 261.134 1.44336C261.134 0.646403 261.779 0 262.574 0H274.72ZM299.011 0C299.806 0 300.451 0.646403 300.451 1.44336C300.451 2.24032 299.806 2.88672 299.011 2.88672H286.866C286.071 2.88667 285.426 2.24029 285.426 1.44336C285.426 0.646434 286.071 4.94644e-05 286.866 0H299.011ZM323.303 0C324.098 0 324.742 0.646403 324.742 1.44336C324.742 2.24032 324.098 2.88672 323.303 2.88672H311.157C310.362 2.88665 309.718 2.24028 309.718 1.44336C309.718 0.646444 310.362 6.5954e-05 311.157 0H323.303ZM347.594 0C348.389 0 349.034 0.646403 349.034 1.44336C349.034 2.24032 348.389 2.88672 347.594 2.88672H335.449C334.654 2.88662 334.01 2.24025 334.01 1.44336C334.01 0.646464 334.654 9.89243e-05 335.449 0H347.594ZM371.886 0C372.681 0 373.325 0.646403 373.325 1.44336C373.325 2.24032 372.681 2.88672 371.886 2.88672H359.74C358.945 2.88659 358.301 2.24023 358.301 1.44336C358.301 0.646484 358.945 0.000131895 359.74 0H371.886ZM396.177 0C396.972 0 397.617 0.646403 397.617 1.44336C397.617 2.24032 396.972 2.88672 396.177 2.88672H384.031C383.237 2.88654 382.593 2.2402 382.593 1.44336C382.593 0.646515 383.237 0.000181347 384.031 0H396.177ZM420.469 0C421.264 0 421.908 0.646403 421.908 1.44336C421.908 2.24032 421.264 2.88672 420.469 2.88672H408.323C407.528 2.88652 406.884 2.24019 406.884 1.44336C406.884 0.646525 407.528 0.000197838 408.323 0H420.469ZM444.761 0C445.556 0.000263768 446.2 0.646566 446.2 1.44336C446.2 2.24015 445.556 2.88645 444.761 2.88672H432.614C431.82 2.88649 431.176 2.24017 431.176 1.44336C431.176 0.646545 431.82 0.000230795 432.614 0H444.761ZM469.053 0C469.847 0.000247277 470.491 0.646556 470.491 1.44336C470.491 2.24016 469.847 2.88647 469.053 2.88672H456.907C456.112 2.88672 455.467 2.24032 455.467 1.44336C455.467 0.646403 456.112 0 456.907 0H469.053ZM493.344 0C494.139 0.000214313 494.783 0.646535 494.783 1.44336C494.783 2.24018 494.139 2.8865 493.344 2.88672H481.198C480.404 2.88672 479.759 2.24032 479.759 1.44336C479.759 0.646403 480.404 0 481.198 0H493.344ZM517.636 0C518.43 0.00016487 519.074 0.646505 519.074 1.44336C519.074 2.24021 518.43 2.88655 517.636 2.88672H505.49C504.695 2.88672 504.05 2.24032 504.05 1.44336C504.05 0.646403 504.695 0 505.49 0H517.636ZM541.927 0C542.722 9.89205e-05 543.367 0.646464 543.367 1.44336C543.367 2.24025 542.722 2.88662 541.927 2.88672H529.781C528.987 2.88672 528.342 2.24032 528.342 1.44336C528.342 0.646403 528.987 0 529.781 0H541.927ZM566.219 0C567.013 3.29781e-05 567.658 0.646423 567.658 1.44336C567.658 2.2403 567.013 2.88669 566.219 2.88672H554.073C553.278 2.88672 552.633 2.24032 552.633 1.44336C552.633 0.646403 553.278 0 554.073 0H566.219ZM590.51 0C591.305 0 591.95 0.646403 591.95 1.44336C591.95 2.24032 591.305 2.88672 590.51 2.88672H578.364C577.57 2.88672 576.925 2.24032 576.925 1.44336C576.925 0.646403 577.57 0 578.364 0H590.51ZM614.802 0C615.596 0 616.241 0.646403 616.241 1.44336C616.241 2.24032 615.596 2.88672 614.802 2.88672H602.656C601.861 2.88662 601.217 2.24025 601.217 1.44336C601.217 0.646464 601.861 9.89205e-05 602.656 0H614.802ZM639.093 0C639.888 0 640.533 0.646403 640.533 1.44336C640.533 2.24032 639.888 2.88672 639.093 2.88672H626.947C626.153 2.88659 625.509 2.24023 625.509 1.44336C625.509 0.646484 626.153 0.0001319 626.947 0H639.093ZM663.386 0C664.18 0.000263768 664.824 0.646566 664.824 1.44336C664.824 2.24015 664.18 2.88645 663.386 2.88672H651.239C650.444 2.88652 649.8 2.24019 649.8 1.44336C649.8 0.646525 650.444 0.000197838 651.239 0H663.386ZM687.677 0C688.472 0.000230804 689.116 0.646545 689.116 1.44336C689.116 2.24017 688.472 2.88649 687.677 2.88672H675.531C674.736 2.88672 674.092 2.24032 674.092 1.44336C674.092 0.646403 674.736 0 675.531 0H687.677ZM711.969 0C712.763 0.0001319 713.407 0.646484 713.407 1.44336C713.407 2.24023 712.763 2.88659 711.969 2.88672H699.823C699.028 2.88672 698.383 2.24032 698.383 1.44336C698.383 0.646403 699.028 0 699.823 0H711.969ZM736.26 0C737.055 9.89281e-05 737.699 0.646464 737.699 1.44336C737.699 2.24025 737.055 2.88662 736.26 2.88672H724.114C723.319 2.88672 722.675 2.24032 722.675 1.44336C722.675 0.646403 723.319 0 724.114 0H736.26ZM760.551 0C761.346 3.29755e-05 761.991 0.646423 761.991 1.44336C761.991 2.2403 761.346 2.88669 760.551 2.88672H748.406C747.611 2.88672 746.966 2.24032 746.966 1.44336C746.966 0.646403 747.611 0 748.406 0H760.551ZM784.843 0C785.638 0 786.283 0.646403 786.283 1.44336C786.283 2.24032 785.638 2.88672 784.843 2.88672H772.697C771.902 2.88669 771.258 2.2403 771.258 1.44336C771.258 0.646423 771.902 3.29755e-05 772.697 0H784.843ZM809.134 0C809.929 0 810.574 0.646403 810.574 1.44336C810.574 2.24032 809.929 2.88672 809.134 2.88672H796.989C796.194 2.88665 795.55 2.24028 795.55 1.44336C795.55 0.646444 796.194 6.5954e-05 796.989 0H809.134ZM833.426 0C834.221 0 834.866 0.646403 834.866 1.44336C834.866 2.24032 834.221 2.88672 833.426 2.88672H821.28C820.485 2.88655 819.842 2.24021 819.842 1.44336C819.842 0.646505 820.485 0.000164857 821.28 0H833.426ZM857.717 0C858.512 0 859.157 0.646403 859.157 1.44336C859.157 2.24032 858.512 2.88672 857.717 2.88672H845.572C844.777 2.88652 844.133 2.24019 844.133 1.44336C844.133 0.646525 844.777 0.000197838 845.572 0H857.717ZM882.01 0C882.805 0.000197838 883.448 0.646525 883.448 1.44336C883.448 2.24019 882.805 2.88652 882.01 2.88672H869.864C869.069 2.88672 868.425 2.24032 868.425 1.44336C868.425 0.646403 869.069 0 869.864 0H882.01ZM906.301 0C907.096 0.00016487 907.74 0.646505 907.74 1.44336C907.74 2.24021 907.096 2.88655 906.301 2.88672H894.156C893.361 2.88672 892.716 2.24032 892.716 1.44336C892.716 0.646403 893.361 0 894.156 0H906.301ZM930.593 0C931.388 6.59541e-05 932.032 0.646444 932.032 1.44336C932.032 2.24028 931.388 2.88665 930.593 2.88672H918.447C917.652 2.88672 917.008 2.24032 917.008 1.44336C917.008 0.646403 917.652 0 918.447 0H930.593ZM954.884 0C955.679 3.29781e-05 956.324 0.646423 956.324 1.44336C956.324 2.2403 955.679 2.88669 954.884 2.88672H942.739C941.944 2.88672 941.299 2.24032 941.299 1.44336C941.299 0.646403 941.944 0 942.739 0H954.884ZM979.176 0C979.971 0 980.615 0.646403 980.615 1.44336C980.615 2.24032 979.971 2.88672 979.176 2.88672H967.03C966.235 2.88672 965.591 2.24032 965.591 1.44336C965.591 0.646403 966.235 0 967.03 0H979.176ZM1003.47 0C1004.26 0 1004.91 0.646403 1004.91 1.44336C1004.91 2.24032 1004.26 2.88672 1003.47 2.88672H991.322C990.527 2.88662 989.883 2.24025 989.883 1.44336C989.883 0.646464 990.527 9.89205e-05 991.322 0H1003.47ZM1027.76 0C1028.55 0 1029.2 0.646403 1029.2 1.44336C1029.2 2.24032 1028.55 2.88672 1027.76 2.88672H1015.61C1014.82 2.88659 1014.17 2.24023 1014.17 1.44336C1014.17 0.646484 1014.82 0.0001319 1015.61 0H1027.76ZM1052.05 0C1052.85 0 1053.49 0.646403 1053.49 1.44336C1053.49 2.24032 1052.85 2.88672 1052.05 2.88672H1039.9C1039.11 2.88659 1038.47 2.24023 1038.47 1.44336C1038.47 0.646484 1039.11 0.00013191 1039.9 0H1052.05ZM1076.34 0C1077.14 0 1077.78 0.646403 1077.78 1.44336C1077.78 2.24032 1077.14 2.88672 1076.34 2.88672H1064.2C1063.4 2.88659 1062.76 2.24023 1062.76 1.44336C1062.76 0.646484 1063.4 0.00013191 1064.2 0H1076.34ZM1094.56 0C1095.36 0 1096 0.646403 1096 1.44336C1096 2.24032 1095.36 2.88672 1094.56 2.88672H1088.49C1087.69 2.88659 1087.05 2.24023 1087.05 1.44336C1087.05 0.646484 1087.69 0.00013189 1088.49 0H1094.56Z" fill="#244267"/>
</svg>
