<svg width="307" height="38" viewBox="0 0 307 38" fill="none" xmlns="http://www.w3.org/2000/svg">
<path d="M298.56 28.031C299.872 26.9443 300.584 25.5952 300.584 23.9088C300.584 19.8616 296.986 18.2877 293.463 18.2877C291.065 18.2877 288.742 18.8498 286.643 20.0115C284.057 21.4355 280.984 24.3211 278.773 26.3822L275.176 21.7353L291.14 8.91903C287.58 9.33124 283.982 9.55609 280.385 9.66852L279.898 3.89744C281.472 3.89744 283.045 3.93491 284.582 3.93491C289.529 3.93491 294.475 3.67259 299.384 2.99805L301.858 7.30762C298.635 9.40619 295.524 11.6172 292.452 13.9406C293.576 13.7158 294.513 13.6033 295.674 13.6033C301.595 13.6033 306.43 17.2384 306.43 23.4591C306.43 31.3288 299.647 35.3386 292.452 35.3386C288.254 35.3386 282.258 33.8396 282.258 28.6306C282.258 24.7333 285.894 22.6347 289.416 22.6347C293.463 22.6347 296.461 24.7333 298.56 28.031ZM293.763 30.317C292.789 28.6681 291.14 27.2815 289.116 27.2815C288.404 27.2815 287.392 27.6188 287.392 28.4807C287.392 30.0921 290.653 30.5044 291.814 30.5044C292.489 30.5044 293.126 30.4294 293.763 30.317Z" fill="white"/>
<path d="M251.979 7.83212C252.354 5.95839 252.654 4.08466 252.953 2.21094L258.837 3.4476C258.537 4.98405 258.2 6.55798 257.9 8.13191C259.324 8.46918 260.523 8.84393 261.872 9.51847C266.332 11.7669 268.655 16.039 268.655 20.9857C268.655 26.1572 266.107 30.6916 261.46 33.1274C258.874 34.4765 256.364 35.1136 253.478 35.4883L251.267 30.2794C256.738 29.7172 262.697 27.2439 262.697 20.8358C262.697 16.901 260.298 14.3902 256.588 13.4908C255.089 18.8496 253.403 23.459 249.955 27.9185C247.969 30.4667 245.159 32.7902 241.748 32.7902C237.364 32.7902 235.49 28.3682 235.49 24.5832C235.49 20.2362 237.364 16.3388 240.362 13.3409C239.687 11.0175 239.125 8.65656 238.601 6.29566L244.259 4.23456C244.522 6.10829 244.821 7.98202 245.271 9.81827C247.407 8.69403 249.581 8.13191 251.979 7.83212ZM250.855 13.4908C249.356 13.7906 247.894 14.3527 246.583 15.1397C247.145 16.8635 247.857 18.5498 248.606 20.1987C249.543 18.0252 250.218 15.7392 250.855 13.4908ZM245.234 25.2953C243.997 22.8969 243.472 21.7726 242.423 19.2619C241.486 20.8358 240.849 22.672 240.849 24.4708C240.849 25.4826 241.074 27.3189 242.386 27.3189C243.472 27.3189 244.597 26.0822 245.234 25.2953Z" fill="white"/>
<path d="M209.22 12.8162C210.045 12.8162 210.869 12.7787 211.694 12.7412C212.968 9.18116 214.204 4.5718 214.841 0.861816L220.912 1.42393C220.05 5.05896 218.551 9.06874 217.052 12.5164C219.338 12.4414 221.587 12.329 223.835 12.1417C223.086 10.5677 222.299 9.21864 221.362 7.75713L226.084 5.58361C228.407 9.06874 230.281 12.5913 231.518 16.6011L226.421 18.6997C226.234 17.9877 226.046 17.3506 225.822 16.6386C221.362 17.2382 214.017 17.9502 209.558 18.1001L209.183 13.1535C208.846 16.6761 208.096 21.1355 207.009 24.4708C208.471 25.5201 209.52 26.382 210.832 27.6561L207.197 32.5278C206.335 31.6284 205.435 30.729 204.536 29.8296C202.775 32.7152 201.126 34.6264 198.578 36.7999L194.83 32.1531C197.191 30.5042 198.84 28.8178 200.489 26.4194C198.727 25.1828 197.303 24.3583 195.392 23.384C196.779 19.4867 197.416 16.3013 198.053 12.2541H195.467V6.97016H198.652C198.84 5.02149 198.952 3.07281 199.027 1.12414L204.386 1.27404C204.199 3.14776 204.011 5.05896 203.749 6.97016H209.595C209.52 8.91884 209.408 10.8675 209.22 12.8162ZM202.962 12.2541C202.437 15.2895 201.875 17.8378 200.938 20.7608C201.575 21.0981 202.25 21.4728 202.887 21.8101C204.049 18.7746 204.648 15.5144 204.948 12.2541H202.962ZM229.644 19.7115V35.9005H211.019V19.7115H229.644ZM224.173 24.5832H216.191V30.8789H224.173V24.5832Z" fill="white"/>
<path d="M157.881 5.80855C158.443 5.80855 159.043 5.80855 159.642 5.80855C162.902 5.80855 167.624 5.65866 170.697 4.83422L172.796 10.0057C168.674 12.9662 164.889 17.8754 164.889 23.1593C164.889 26.8692 167.662 29.2676 171.259 29.2676C177.18 29.2676 179.016 24.8831 179.016 19.7116C179.016 14.7275 177.855 10.343 175.719 5.8835L180.815 3.85988C183.251 9.44358 187.074 12.8538 191.983 16.2639L188.198 20.9857C186.362 19.2619 185.987 18.9246 184.225 17.0509C184.525 18.6248 184.75 19.4868 184.75 21.1356C184.75 29.4175 179.916 35.0387 171.447 35.0387C164.551 35.0387 159.043 30.5417 159.043 23.4216C159.043 20.3487 159.942 17.1259 161.553 14.5401C162.228 13.4534 163.09 12.3666 163.839 11.3173C162.041 11.5422 160.242 11.6546 158.443 11.8794L157.881 5.80855ZM187.111 1.34908L189.772 0C191.308 2.43584 192.208 4.57189 193.182 7.27006L190.334 8.73157C189.359 5.69613 188.685 4.08473 187.111 1.34908ZM181.977 2.32342L184.638 0.936865C186.212 3.26029 187.148 5.62118 188.123 8.16945L185.275 9.66843C184.3 6.63299 183.588 5.05906 181.977 2.32342Z" fill="white"/>
<path d="M127.375 7.68244L123.628 11.3924C122.054 9.25637 119.768 6.93295 117.632 5.32155L121.567 1.38672C123.44 2.7358 125.876 5.05922 127.375 6.82053V6.37083H133.746V5.13417H127.113V1.98631H138.505V9.14395H132.172V10.2307C132.172 10.6804 132.247 10.9427 132.809 10.9427H134.271C135.058 10.9427 135.17 10.3806 135.282 9.55617L139.292 10.0433C139.105 11.6922 138.768 14.0531 136.669 14.0531H129.961C128.162 14.0531 127.375 13.2287 127.375 11.4674V7.68244ZM139.929 1.98631H151.659V9.14395H144.764V10.2682C144.764 10.493 144.801 10.9427 145.625 10.9427H147.986C148.698 10.9427 148.811 10.3806 148.886 9.51869L153.083 10.0808C152.895 11.7297 152.446 14.0531 150.347 14.0531H142.702C141.166 14.0531 140.079 13.1537 140.079 11.8421V6.37083H146.9V5.13417H139.929V1.98631ZM150.61 30.6169H153.57L152.371 35.9008H134.795C132.847 35.9008 130.786 35.6759 128.912 35.1138C127.038 34.5517 125.689 33.5399 124.452 32.0034C122.916 33.8022 120.967 35.4885 118.944 36.7627L116.92 30.9167C118.194 30.3171 119.618 29.3802 120.705 28.4808V20.2739H117.445V14.99H126.176V25.97C126.851 28.3309 128.2 29.4551 130.523 30.1297L128.05 26.8694C130.148 26.4572 131.985 25.8951 133.933 25.0332H127.225V21.0609H132.135V19.2246H127.825V15.627H132.135V14.6527H137.269V15.627H142.44V14.6527H147.537V15.627H151.959V19.2246H147.537V21.0609H152.895V25.0332H146.787C148.661 25.8576 150.872 26.6446 152.858 27.0193L150.61 30.6169ZM142.44 19.2246H137.269V21.0609H142.44V19.2246ZM148.848 30.6169C146.412 29.7549 143.864 28.5183 141.728 27.0942L144.126 25.0332H136.069L138.768 27.0942C136.781 28.4433 134.608 29.5676 132.397 30.467C133.409 30.6169 135.02 30.6169 136.032 30.6169H148.848Z" fill="white"/>
<path d="M90.538 6.14612C91.2875 4.79704 91.9621 3.41048 92.6366 2.02393L98.4077 3.33553C97.8831 4.19745 97.3584 5.05936 96.8338 5.8838C100.431 5.62148 103.842 5.20926 107.439 4.49724L107.327 9.93105C102.68 10.5681 98.1079 11.0178 93.4611 11.2801C93.1238 11.8048 92.7865 12.2919 92.4867 12.8166C93.3861 12.5543 94.1356 12.4418 95.1099 12.4418C97.7706 12.4418 99.9442 13.4162 101.256 15.8146C104.066 14.6528 106.839 13.5286 109.65 12.4793L111.749 17.6133C108.676 18.7001 105.266 19.8618 102.268 21.0985C102.268 21.9229 102.268 22.7099 102.268 23.5343C102.268 24.8834 102.268 26.27 102.23 27.6565L96.6464 27.7689C96.7588 26.3824 96.8338 24.9583 96.8712 23.5343C94.8476 24.5836 92.749 25.8203 92.749 27.4691C92.749 29.6052 96.4215 29.6801 98.2578 29.6801C102.005 29.6801 105.528 29.3054 109.313 28.6308L108.751 34.4019C105.828 34.7392 102.867 34.964 99.9067 34.964C97.3959 34.964 94.323 34.8141 91.9246 33.9148C89.1515 32.9029 87.2403 30.7669 87.2403 27.7315C87.2403 22.8223 92.4492 19.9368 96.2716 18.063C95.747 17.2761 94.9226 17.0512 93.9857 17.0512C90.1258 17.0512 87.3902 20.7987 84.9169 24.5086L80.4199 21.3233C82.9682 18.2879 85.4415 14.8777 87.5026 11.4675C85.7038 11.505 83.905 11.505 82.1063 11.4675L82.2187 5.99623C84.6545 6.10865 87.0904 6.1836 89.5262 6.1836C89.8635 6.1836 90.2008 6.1836 90.538 6.14612Z" fill="white"/>
<path d="M52.0512 7.12007C55.0492 5.73351 58.3094 3.70989 60.5204 1.16162H66.0667C68.5775 4.04716 72.3249 6.25816 75.8475 7.64471L73.4866 12.6663C72.4373 12.1042 71.3506 11.5421 70.3388 10.9425V13.3408H65.542V15.2146H73.8239V27.094H67.4907C69.8891 29.8671 72.2125 30.9164 75.7351 31.7783L73.2993 37.0248C69.1396 35.6757 65.2422 33.1274 63.0312 29.305C60.483 33.3897 56.9229 35.5258 52.3885 36.9498L49.8402 31.9657C53.138 31.3661 56.5481 30.017 58.5343 27.094H52.7257V15.2146H60.5954V13.3408H55.9485V11.0549C54.7494 11.7669 53.8874 12.1791 52.6508 12.7038L51.3392 10.0056C50.852 11.9918 50.5897 12.9286 49.8777 14.8773C51.6764 17.6504 52.4259 20.4235 52.4259 23.7213C52.4259 26.9816 51.7889 29.7172 47.8915 29.7172H46.5424L45.4931 24.2834H46.505C47.8166 24.2834 47.9665 23.1966 47.9665 21.96C47.9665 19.5616 47.1046 17.4256 45.4557 15.6643V36.6875H40.584V2.09848H52.0512V7.12007ZM59.3213 8.80643H67.1909C65.6919 7.68219 64.5302 6.59543 63.2186 5.20887C61.9819 6.70785 60.8577 7.64471 59.3213 8.80643ZM45.4557 15.4769C46.3925 13.3408 47.4418 9.51844 47.7791 7.19502H45.4557V15.4769ZM65.542 19.2618V20.3111C65.542 21.1355 65.4671 21.885 65.3172 22.7095H68.8773V19.2618H65.542ZM60.5954 19.2618H57.5974V22.7095H60.3331C60.483 21.885 60.5954 20.9856 60.5954 20.1237V19.2618Z" fill="white"/>
<path d="M3.18534 20.4614C2.54827 21.2109 2.13605 21.6606 1.42403 22.3351L0 14.1656C2.96049 10.1559 4.57189 5.92125 5.24643 0.974609L10.7552 1.46178C10.268 4.64711 9.59348 7.53265 8.54419 10.6056V36.6504H3.18534V20.4614ZM17.7629 22.8223H10.4929V17.6508H20.5735V15.2524H12.4041V2.17379H34.2517V15.2524H25.8949V17.6508H36.013V22.8223H28.8554C31.0664 26.12 33.4273 28.3685 36.6126 30.6919L33.3523 35.7135C30.3169 33.1278 27.9185 30.3546 25.8949 26.9445V36.6504H20.5735V27.1693C18.2501 30.3546 15.7018 33.2777 12.3666 35.4137L9.14379 30.5045C12.8912 28.2935 15.2147 26.3449 17.7629 22.8223ZM28.7055 6.97053H17.9128V10.6056H28.7055V6.97053Z" fill="white"/>
</svg>
