<svg width="276" height="87" viewBox="0 0 276 87" fill="none" xmlns="http://www.w3.org/2000/svg">
<g clip-path="url(#clip0_2001_142)">
<path d="M267.305 5.07762C272.175 18.8534 281.928 43.0727 262.392 50.1378C256.946 52.1082 250.857 52.3813 245.13 52.5673C237.182 52.8227 229.217 52.5021 221.28 52.0582C205.099 51.148 188.978 49.3949 172.79 48.6355C167.481 48.3852 161.947 48.0444 156.691 49.0492C149.656 50.3932 143.618 54.6571 139.722 60.6751C136.596 65.5113 134.723 71.5136 135.077 77.3095C135.282 80.6841 136.718 85.5812 140.927 85.3177C145.457 85.0287 146.917 79.9085 146.885 76.1029C146.842 70.4734 144.601 64.8037 141.106 60.4569C136.867 55.18 130.572 52.2499 123.815 52.5945C121.357 52.7173 118.922 53.2586 116.509 53.7176C113.599 54.2698 110.695 54.8288 107.784 55.3809C90.9532 58.5604 73.9945 61.5196 56.8962 62.7228C41.1944 63.8313 23.3772 63.3641 11.0231 52.0406C2.51614 44.2225 -0.257494 31.748 3.64605 20.9099C4.24822 19.2336 5.03431 17.5446 6.09113 16.1383C6.79801 15.1893 5.81573 14.3197 5.08834 15.2822C2.52864 18.6888 1.20973 23.0076 0.620187 27.1935C-0.140082 32.6332 0.467068 38.2865 2.58241 43.3658C8.50537 57.5866 24.9274 63.7708 39.2148 64.67C47.3421 65.1835 55.5438 64.6005 63.6312 63.7837C72.4953 62.8891 81.3139 61.6034 90.0996 60.1393C97.3858 58.9269 104.646 57.5773 111.899 56.1934C117.345 55.1486 123.116 53.4681 128.651 54.7002C134.949 56.1082 139.879 60.7103 142.699 66.4313C144.758 70.5984 146.46 76.5324 144.581 81.0811C143.2 84.4396 139.306 84.1907 137.751 81.0962C135.53 76.6813 136.729 70.6888 138.382 66.3102C140.755 60.0091 145.45 54.6952 151.689 52.1055C156.972 49.9147 162.786 50.024 168.396 50.1801C184.028 50.6277 199.611 52.3914 215.212 53.4079C223.318 53.935 231.439 54.3595 239.563 54.3382C245.896 54.3202 252.372 54.1454 258.583 52.7897C265.142 51.3537 271.266 47.4811 274.054 41.1139C277.47 33.3104 275.358 24.1309 273.013 16.3419C271.744 12.1314 270.243 7.99505 268.783 3.85204C268.474 2.98632 267.03 4.25323 267.312 5.05023L267.305 5.07762Z" fill="#244267"/>
</g>
<path d="M227.829 19.8848L228.012 15.6259C229.742 16.2003 230.785 16.3674 234.571 16.6863C234.649 15.352 234.851 12.8657 234.964 11.4926C232.774 11.3117 232.181 11.2689 229.646 10.8475C229.125 10.764 228.938 10.7368 228.38 10.6552L228.536 6.58241C230.114 7.09089 232.758 7.46967 235.275 7.55945C235.629 4.43703 235.75 2.50926 235.692 1.40376C235.686 1.29322 235.682 1.21951 235.635 1.0372L240.56 1.22254C240.214 2.38613 240.133 2.94467 239.707 7.51195C243.867 7.22002 245.995 6.92376 248.068 6.29779L248.147 10.6169C247.669 10.6789 247.487 10.7254 246.68 10.8416C244.039 11.2017 242.863 11.3372 241.537 11.4067C241.168 11.4261 240.837 11.4434 239.25 11.4896C239.023 14.199 238.951 14.9418 238.822 16.7221C239.93 16.7011 240.225 16.6856 240.63 16.6644C243.246 16.5272 245.886 16.1302 247.63 15.5585L247.741 19.802C247.373 19.8213 247.262 19.8271 246.641 19.9705C245.03 20.2397 242.863 20.5011 241.131 20.5918C240.542 20.6227 240.21 20.6401 238.769 20.6417C238.711 21.6425 238.687 22.6044 238.722 23.2677C238.817 25.0734 239.282 26.1945 240.284 26.9918C241.401 27.857 242.898 28.222 244.925 28.1158C249.605 27.8705 252.187 25.6659 251.998 22.0547C251.886 19.9174 250.672 17.9117 248.355 16.0009C250.411 15.7453 251.177 15.5574 252.876 14.8401C253.853 15.8605 254.287 16.392 254.73 17.0709C255.773 18.6421 256.509 20.7097 256.598 22.4048C256.735 25.0211 255.579 27.6313 253.422 29.4811C251.406 31.2125 248.685 32.1681 245.221 32.3496C238.514 32.7011 234.698 29.6864 234.387 23.7535C234.337 22.7955 234.326 21.8723 234.407 20.6117C232.181 20.4327 230.732 20.287 229.241 20.0326C228.457 19.8889 228.347 19.8947 227.829 19.8848Z" fill="#244267"/>
<path d="M192.055 12.7436L191.546 7.9666C192.359 7.96097 192.764 7.93972 192.948 7.93007C193.611 7.89531 193.611 7.89531 199.009 7.24292C201.067 7.02422 207.166 6.37199 217.349 5.358C220.363 5.05224 220.914 4.98642 221.567 4.76741L222.072 9.47066C221.665 9.45506 221.665 9.45505 221.297 9.47437C219.086 9.59024 216.397 10.4701 214.105 11.8466C209.552 14.524 206.982 18.3538 207.177 22.0756C207.327 24.9499 209.249 27.0663 212.392 27.8253C214.227 28.2834 216.607 28.5651 217.933 28.4956C217.97 28.4937 218.302 28.4763 218.668 28.4201L218.268 33.4665C217.82 33.3791 217.633 33.3519 217.003 33.311C212.923 33.0076 210.566 32.4659 208.253 31.3309C204.762 29.5923 202.719 26.5586 202.518 22.7262C202.354 19.594 203.444 16.433 205.563 13.8462C206.884 12.262 208.16 11.2344 210.492 9.89281C207.53 10.4914 206.099 10.6773 198.133 11.686C195.674 11.9996 193.477 12.3734 192.055 12.7436Z" fill="#244267"/>
<path d="M163.878 22.7189L162.725 18.3452C163.753 18.2175 163.753 18.2175 166.521 17.4443C171.475 16.0761 174.768 15.4601 177.826 15.2998C182.027 15.0797 184.928 16.147 186.72 18.6027C187.715 19.9547 188.238 21.4793 188.332 23.2849C188.589 28.1859 185.334 32.3472 179.571 34.4968C177.323 35.3166 176.41 35.5123 171.648 36.3161C171.183 34.493 170.852 33.8083 169.844 32.1983C170.102 32.1848 170.249 32.1771 170.396 32.1693C171.76 32.0979 173.812 31.7686 175.6 31.3423C178.446 30.639 180.032 29.8907 181.623 28.5141C183.322 27.0948 184.085 25.429 183.978 23.4022C183.828 20.5279 181.609 19.0923 177.703 19.297C175.161 19.4302 172.344 19.9843 168.087 21.242C165.758 21.9184 165.104 22.1374 163.878 22.7189Z" fill="#244267"/>
<path d="M147.031 14.2903L151.256 15.2513C151.124 15.5538 151.124 15.5538 150.87 16.3431C150.556 17.3942 150.521 17.433 150.428 17.7704C151.958 18.0598 153.054 18.5197 154.355 19.3752C156.806 21.0204 158.068 23.2452 158.22 26.1564C158.431 30.173 156.421 33.4192 152.365 35.701C150.247 36.8836 148.176 37.5464 144.95 38.048C144.462 36.4847 144.095 35.8388 142.779 33.9863C145.762 33.793 147.62 33.2892 149.74 32.1435C152.614 30.5887 153.883 28.7116 153.75 26.1689C153.628 23.8474 152.019 22.0473 149.356 21.3C147.559 25.7913 145.967 28.5353 143.458 31.438C140.325 35.1126 137.14 37.0901 134.082 37.2504C130.655 37.43 128.196 34.9353 127.995 31.1029C127.837 28.0813 128.974 25.1025 131.211 22.6574C132.609 21.143 133.925 20.1503 136.085 19.0764C136.023 17.8972 136.02 16.4193 136.001 14.6467C135.596 14.6679 133.604 14.7353 130.024 14.8121C129.655 14.8314 129.397 14.845 129.323 14.8488C129.213 14.8546 128.881 14.872 128.478 14.9301L128.262 10.8029C129.939 11.0845 132.123 11.1548 135.181 10.9945C135.218 10.9926 135.255 10.9907 135.992 10.952C135.99 10.2131 135.99 10.2131 136.024 8.73333C136.035 8.25235 136.024 7.32918 135.987 6.62903C135.979 6.48163 135.972 6.33423 135.883 6.0433L140.464 6.02493C140.221 7.03532 140.124 8.00114 140.038 10.5922C145.916 9.95156 151.11 8.94034 153.902 7.90724L154.308 12.1353C153.794 12.1992 153.646 12.2069 152.878 12.358C148.86 13.2337 142.919 14.0994 139.975 14.3275C139.947 15.9179 139.972 17.099 139.976 17.8748C141.945 17.3651 142.788 17.247 145.036 17.1292C145.478 17.1061 145.773 17.0906 146.44 17.1295C146.784 15.9291 146.964 15.1437 147.031 14.2903ZM136.379 23.2734C134.814 24.427 134.216 25.0126 133.528 25.9724C132.497 27.4675 132.024 29.0073 132.105 30.555C132.192 32.2132 133.057 33.2025 134.346 33.135C135.378 33.0809 136.35 32.5865 137.479 31.5667C136.874 29.1965 136.566 26.8478 136.379 23.2734ZM140.835 28.6195L140.91 28.6524C141.046 28.4236 141.046 28.4236 141.289 28.1153C142.918 26.0715 144.269 23.6359 145.472 20.5059C145.065 20.4903 144.88 20.4999 144.512 20.5192C142.89 20.6042 141.574 20.858 140.125 21.4143C140.339 24.8025 140.358 25.171 140.715 27.7389C140.763 27.9581 140.763 27.9581 140.777 28.216C140.786 28.4003 140.788 28.4371 140.835 28.6195Z" fill="#244267"/>
<path d="M116.356 20.6521L119.377 18.9542C121.649 21.7604 123.42 24.9932 124.495 28.4779L121.086 30.4118C120.303 27.2196 118.163 22.8053 116.356 20.6521ZM106.974 14.3695L106.934 14.7719C106.827 15.6705 106.678 16.9408 106.458 18.6151C106.393 19.142 106.393 19.142 106.322 19.546C107.241 19.467 107.67 19.4138 108.222 19.3848C110.249 19.2786 111.783 19.7525 112.852 20.7741C113.958 21.8863 114.434 23.3394 114.581 26.1338C114.857 31.4156 114.187 35.6693 112.802 37.4355C111.995 38.494 111.093 38.9107 109.466 38.996C108.053 39.0701 106.781 38.8904 104.688 38.3226C104.688 37.7376 104.695 37.2753 104.679 36.9682C104.637 36.1698 104.543 35.5589 104.235 34.3741C105.932 35.0242 107.708 35.4238 108.783 35.3675C109.673 35.3208 110.134 34.7116 110.516 33.1828C110.924 31.5602 111.084 28.7497 110.947 26.1395C110.799 23.3144 110.05 22.5222 107.685 22.6462C107.04 22.68 106.55 22.7364 105.847 22.8349C104.673 29.2089 103.485 32.997 100.458 39.8684L96.7933 38.0897C98.9888 34.7415 101.064 29.0901 102.208 23.3027C101.75 23.3883 101.75 23.3883 100.777 23.624L98.0069 24.2311C97.5204 24.349 97.1874 24.4588 96.7639 24.6042L96.2055 20.9999C97.5858 20.8968 99.1746 20.6596 102.713 20.0123C103.117 16.5731 103.241 14.8115 103.186 13.7674C103.179 13.6446 103.17 13.4603 103.157 13.2146L107.17 13.4046C107.091 13.6551 107.019 14.0592 106.974 14.3695ZM114.11 14.2111L116.203 13.0236C117.63 14.3961 118.52 15.5195 119.664 17.3687L117.574 18.6176C116.462 16.7975 115.538 15.6142 114.11 14.2111ZM123.214 15.1812L121.157 16.4898C120.148 14.8492 119.059 13.459 117.792 12.2013L119.793 11.0187C121.249 12.3589 122.17 13.4807 123.214 15.1812Z" fill="#244267"/>
<path d="M87.3888 37.0369L87.2092 33.6099C86.375 34.6143 86.0316 35.1127 85.4612 36.2142C83.0877 34.6388 81.7653 33.3779 80.443 31.4149C80.018 32.4718 79.5776 33.2339 78.8559 34.2694C77.9945 35.46 77.3971 36.0456 75.9442 37.2303C75.2986 36.1925 74.5928 35.4166 73.7047 34.6872L73.9113 38.6301C74.0079 40.4726 74.1027 41.5761 74.3099 42.7107L70.1091 42.9309C70.1597 41.7828 70.1697 40.5629 70.0789 38.8309L69.4358 26.56C69.376 25.4176 69.3509 24.9386 69.2231 23.9106C70.1113 23.938 70.924 23.9324 72.5085 23.8493L78.036 23.5596C78.0303 22.747 78.0245 22.6365 77.9647 21.4941L77.9241 20.7203L72.3598 21.0119C70.9227 21.0872 69.8191 21.182 68.6457 21.3543L68.4487 17.5957C69.4882 17.689 70.4851 17.6737 72.1802 17.5849L87.2149 16.7969C89.2416 16.6907 90.1978 16.6036 91.0376 16.4118L91.2346 20.1705C90.0865 20.1198 89.0896 20.1351 87.3945 20.2239L81.6459 20.5252L81.6902 22.0748C81.7076 22.4065 81.7153 22.5539 81.721 23.3665L87.0642 23.0865C89.1646 22.9764 89.7891 22.9067 90.6677 22.7498C90.6151 23.8611 90.6285 24.8211 90.7096 26.3688L91.3179 37.9765C91.399 39.5242 91.073 40.3542 90.1788 40.9184C89.3195 41.4438 88.2586 41.6472 85.6054 41.7862C85.2001 41.8075 84.5736 41.8403 83.4293 41.8633C83.2105 40.5076 82.852 39.307 82.2394 38.1936C83.4243 38.2424 84.8304 38.2795 85.6043 38.239C87.1888 38.1559 87.439 37.995 87.3888 37.0369ZM86.8249 26.2768L81.5922 26.551C81.5379 26.9234 81.5087 27.0727 81.4582 27.5188C82.8366 29.8484 84.2347 31.1423 87.1745 32.9466L86.8249 26.2768ZM73.301 26.9856L73.6699 34.0239C74.5234 33.3879 75.1926 32.7616 75.8833 31.8386C77.0259 30.3746 77.6159 28.9395 77.9073 26.7442L73.301 26.9856ZM75.0054 11.5616L74.9822 11.1194C74.9204 9.94021 74.8546 9.38939 74.6647 8.58642L79.1604 8.35082C79.0497 9.05869 79.0456 9.68706 79.1113 10.94L79.1325 11.3453L87.2395 10.9204C89.0451 10.8258 90.4784 10.6768 91.613 10.4695L91.8216 14.4493C90.5978 14.3656 89.1588 14.4041 87.39 14.4968L67.3069 15.5493C67.9614 28.7434 67.7997 32.0036 66.0763 37.1931C65.3116 39.5242 64.2659 41.4265 62.5626 43.4742C61.3721 41.9107 60.5946 41.1755 59.3302 40.318C60.7386 38.9879 61.4234 37.9543 62.2404 35.9161C62.8905 34.2193 63.3409 32.2373 63.5722 29.6016C62.4666 30.3616 61.1418 31.1701 60.139 31.7769C59.9954 31.8583 59.6017 32.1007 59.4232 32.2209L58.0704 28.2641C59.4533 27.8591 61.5442 26.8627 63.7283 25.5288C63.7153 23.1647 63.6787 21.7624 63.5126 18.5934C63.4624 17.6353 63.418 16.7877 63.3929 16.3087C63.2325 13.9522 63.1628 13.3277 62.909 12.0108C64.2433 12.0887 65.4613 12.0618 67.5986 11.9498L75.0054 11.5616ZM57.4405 17.6553L60.0941 15.41C62.0193 18.3021 62.6707 19.4504 63.6012 21.6926L60.9242 24.1978C59.575 21.0168 58.6309 19.2187 57.4405 17.6553Z" fill="#244267"/>
<path d="M50.8998 24.6862L51.0717 27.9659L51.6613 27.935C53.1721 27.8558 54.1651 27.7668 55.2629 27.5615L55.4695 31.5044C54.3563 31.4149 53.3207 31.3953 51.8467 31.4725L51.2571 31.5034L51.7206 40.3474C51.7804 41.4897 51.4971 42.4283 50.9326 42.9383C50.1586 43.6809 49.0298 43.9987 46.6345 44.1243C45.8238 44.1667 45.1954 44.1627 43.2366 44.1545C42.9325 42.5816 42.6205 41.5633 41.9633 40.3045C43.5982 40.4774 44.9325 40.5553 46.1485 40.4916C47.4014 40.4259 47.7234 40.2243 47.6809 39.4136L47.2773 31.712L37.9912 32.1987C36.2224 32.2914 35.1557 32.3842 33.8737 32.5992L33.7037 29.3564C32.0492 30.2191 31.6515 30.3878 30.5692 30.8879L31.1177 41.3532C31.2703 44.2644 30.3489 45.0147 26.4059 45.2213C25.7426 45.2561 25.188 45.2482 23.97 45.2751C23.7415 43.7351 23.5167 42.971 22.9255 41.5609C24.2947 41.5999 25.2198 41.6254 26.0305 41.5829C26.9886 41.5327 27.235 41.298 27.1886 40.4137L26.7734 32.491C24.8939 33.2915 24.8939 33.2915 24.2422 33.5474C23.8795 33.6773 23.2297 33.97 22.8321 34.1386L22.0281 30.0792C22.9455 29.9572 23.9987 29.6064 26.5706 28.6217L26.2133 21.8045L24.5551 21.8914C23.5602 21.9436 22.7514 22.0229 21.8728 22.1798L21.6662 18.2369C22.5971 18.3729 23.336 18.3711 24.4046 18.3151L26.026 18.2301L25.8657 15.1716C25.775 13.4396 25.6956 12.6309 25.4496 11.4613L29.761 11.2354C29.6347 12.3505 29.6461 13.2737 29.733 14.932L29.8952 18.0273L31.0744 17.9655C31.9957 17.9173 32.4359 17.8572 33.1303 17.71L33.3311 21.5424C32.664 21.5034 32.0725 21.4975 31.2986 21.538L30.0826 21.6018L30.3722 27.1292C31.602 26.6214 31.9627 26.4547 33.367 25.7529L33.1847 25.7994L32.9839 21.967C33.9109 22.0293 35.4625 22.0219 37.1207 21.935L41.5795 21.7013L41.3883 18.0532L38.035 18.2289C36.3768 18.3158 35.3469 18.4067 34.3228 18.6082L34.1181 14.7021C35.1577 14.7955 36.1565 14.817 37.8515 14.7282L41.2049 14.5524L41.1469 13.447C41.0929 12.4152 40.9767 11.6083 40.781 10.6948L45.1293 10.4669C44.9933 11.3978 44.9931 12.0999 45.0511 13.2054L45.1109 14.3477L49.4592 14.1199C51.1543 14.031 52.1454 13.9052 53.2063 13.7018L53.411 17.6078C52.3715 17.5145 51.3378 17.5317 49.6795 17.6186L45.2944 17.8485L45.4856 21.4966L50.8288 21.2166C52.5239 21.1277 53.9572 20.9787 54.9812 20.7772L55.184 24.6465C54.2201 24.5861 52.8897 24.5819 50.8998 24.6862ZM46.92 24.8948L37.3022 25.3989C36.1231 25.4606 34.2844 25.6309 33.5494 25.7064L33.7058 28.6912C34.8927 28.7768 36.0001 28.7557 37.8058 28.6611L47.0919 28.1744L46.92 24.8948ZM35.6206 34.9095L38.6796 32.643C40.6244 34.4994 41.6443 35.6284 43.3194 37.9794L40.2391 40.5426C38.5504 37.9337 37.9959 37.2238 35.6206 34.9095Z" fill="#244267"/>
<defs>
<clipPath id="clip0_2001_142">
<rect width="275.526" height="82.4694" fill="white" transform="translate(0.480469 2.0293) rotate(0.333647)"/>
</clipPath>
</defs>
</svg>
