<svg width="586" height="4" viewBox="0 0 586 4" fill="none" xmlns="http://www.w3.org/2000/svg">
<path d="M10.5586 0C11.6632 0 12.5586 0.89543 12.5586 2C12.5586 3.10457 11.6632 4 10.5586 4H2C0.89543 4 0 3.10457 0 2C0 0.89543 0.89543 0 2 0H10.5586ZM44.7939 0C45.8985 0 46.7939 0.89543 46.7939 2C46.7939 3.10457 45.8985 4 44.7939 4H27.6768C26.5722 4 25.6768 3.10457 25.6768 2C25.6768 0.89543 26.5722 0 27.6768 0H44.7939ZM79.0293 0C80.1339 0 81.0293 0.89543 81.0293 2C81.0293 3.10457 80.1339 4 79.0293 4H61.9121C60.8075 4 59.9121 3.10457 59.9121 2C59.9121 0.89543 60.8075 0 61.9121 0H79.0293ZM113.265 0C114.369 0 115.265 0.89543 115.265 2C115.265 3.10457 114.369 4 113.265 4H96.1475C95.0429 4 94.1475 3.10457 94.1475 2C94.1475 0.89543 95.0429 0 96.1475 0H113.265ZM147.5 0C148.605 0 149.5 0.89543 149.5 2C149.5 3.10457 148.605 4 147.5 4H130.383C129.278 4 128.383 3.10457 128.383 2C128.383 0.89543 129.278 0 130.383 0H147.5ZM181.735 0C182.84 3.29854e-05 183.735 0.895451 183.735 2C183.735 3.10455 182.84 3.99997 181.735 4H164.617C163.513 3.99975 162.617 3.10442 162.617 2C162.617 0.895583 163.513 0.000247353 164.617 0H181.735ZM215.971 0C217.075 6.5969e-05 217.971 0.895471 217.971 2C217.971 3.10453 217.075 3.99993 215.971 4H198.853C197.748 3.99979 196.853 3.10444 196.853 2C196.853 0.895563 197.748 0.000214378 198.853 0H215.971ZM250.206 0C251.311 9.89512e-05 252.206 0.895491 252.206 2C252.206 3.10451 251.311 3.9999 250.206 4H233.088C231.983 3.99982 231.088 3.10446 231.088 2C231.088 0.895542 231.983 0.0001814 233.088 0H250.206ZM284.441 0C285.546 0.00013193 286.441 0.895512 286.441 2C286.441 3.10449 285.546 3.99987 284.441 4H267.323C266.219 3.99985 265.323 3.10448 265.323 2C265.323 0.895522 266.219 0.000148424 267.323 0H284.441ZM318.677 0C319.781 0.000164909 320.677 0.895532 320.677 2C320.677 3.10447 319.781 3.99984 318.677 4H301.559C300.454 3.99988 299.559 3.1045 299.559 2C299.559 0.895502 300.454 0.00011544 301.559 0H318.677ZM352.912 0C354.017 0.000197887 354.912 0.895553 354.912 2C354.912 3.10445 354.017 3.9998 352.912 4H335.794C334.689 3.99992 333.794 3.10452 333.794 2C333.794 0.895481 334.689 8.2459e-05 335.794 0H352.912ZM387.147 0C388.252 0.000230863 389.147 0.895573 389.147 2C389.147 3.10443 388.252 3.99977 387.147 4H370.029C368.925 3.99995 368.029 3.10454 368.029 2C368.029 0.895461 368.925 4.94765e-05 370.029 0H387.147ZM421.383 0C422.487 0.000263837 423.383 0.895593 423.383 2C423.383 3.10441 422.487 3.99974 421.383 4H404.265C403.16 3.99998 402.265 3.10456 402.265 2C402.265 0.895441 403.16 1.64925e-05 404.265 0H421.383ZM455.617 0C456.722 0 457.617 0.89543 457.617 2C457.617 3.10457 456.722 4 455.617 4H438.5C437.395 4 436.5 3.10457 436.5 2C436.5 0.89543 437.395 0 438.5 0H455.617ZM489.853 0C490.957 0 491.853 0.89543 491.853 2C491.853 3.10457 490.957 4 489.853 4H472.735C471.631 4 470.735 3.10457 470.735 2C470.735 0.89543 471.631 0 472.735 0H489.853ZM524.088 0C525.193 0 526.088 0.89543 526.088 2C526.088 3.10457 525.193 4 524.088 4H506.971C505.866 4 504.971 3.10457 504.971 2C504.971 0.89543 505.866 0 506.971 0H524.088ZM558.323 0C559.428 0 560.323 0.89543 560.323 2C560.323 3.10457 559.428 4 558.323 4H541.206C540.102 4 539.206 3.10457 539.206 2C539.206 0.89543 540.102 0 541.206 0H558.323ZM584 0C585.105 0 586 0.89543 586 2C586 3.10457 585.105 4 584 4H575.441C574.337 4 573.441 3.10457 573.441 2C573.441 0.89543 574.337 0 575.441 0H584Z" fill="#244267"/>
</svg>
